<svg width="246" height="310" viewBox="0 0 246 310" fill="none" xmlns="http://www.w3.org/2000/svg">
<path d="M190.011 20.2466C161.171 45.1268 157.028 48.7759 146.917 57.0693C103.327 93.3943 93.3825 103.512 101.67 103.512C104.487 103.512 110.288 99.1996 154.376 64.5333C167.635 53.9178 188.519 37.6627 200.618 28.2083C212.552 18.9197 222.496 10.2946 222.496 9.1335C222.496 7.14309 215.701 -0.320955 214.043 0.0107801C213.712 0.0107801 202.773 9.1335 190.011 20.2466ZM213.878 10.4604C212.22 11.6215 211.226 13.1143 211.723 13.6119C212.22 14.2754 212.054 14.4413 211.557 14.1095C210.563 13.4461 206.585 16.2658 200.618 21.9053C198.795 23.564 196.806 24.7251 195.977 24.3933C195.314 24.0616 196.806 21.9053 199.458 19.5832C202.11 17.0952 204.265 15.4365 204.265 15.7682C204.265 16.0999 206.088 14.4413 208.408 12.285C210.563 9.96284 213.38 8.1383 214.541 8.1383C216.032 8.30416 215.701 8.96763 213.878 10.4604Z" fill="white"/>
<path d="M211.394 50.9046C198.466 66.9938 186.036 82.4195 183.715 85.2393C158.522 115.925 139.462 141.303 140.29 143.459C141.616 146.942 145.263 146.279 148.909 141.966C158.025 131.351 193.494 90.0494 194.323 89.386C194.82 88.8884 202.61 79.9315 211.726 69.4818C220.842 59.0321 230.62 47.7531 233.604 44.6016C236.421 41.4502 240.399 36.8059 242.222 34.4837L245.537 30.1711L241.891 26.8538C239.902 25.0292 237.416 23.0388 236.421 22.5412C235.593 22.0436 224.156 34.8154 211.394 50.9046ZM233.935 34.6496C232.775 35.4789 231.781 36.9717 231.449 38.2987C231.283 39.4597 227.306 44.6016 222.665 49.5777C218.024 54.5537 214.212 59.198 214.212 60.0274C214.212 60.6908 213.383 60.8567 212.389 60.3591C211.394 59.6956 211.891 57.8711 214.046 55.7148C225.648 43.2747 229.129 39.128 229.129 37.8011C229.129 35.4789 234.93 30.1711 235.593 31.8298C235.924 32.6592 235.261 33.9861 233.935 34.6496Z" fill="white"/>
<path d="M116.412 102.501C116.412 103.33 117.573 104.823 119.064 106.15C120.39 107.311 122.711 110.13 123.871 112.453C128.677 121.244 129.175 121.741 131.992 119.419C135.639 116.268 135.307 114.277 131.163 114.775C129.175 114.941 127.186 114.111 126.854 112.95C126.357 111.623 127.02 111.292 129.175 112.121C130.998 112.784 130.003 110.96 126.357 107.145C120.887 101.339 116.412 99.349 116.412 102.501Z" fill="white"/>
<path d="M110.783 105.482C110.12 106.145 111.777 108.633 114.595 110.955C117.413 113.277 122.219 119.415 125.368 124.722L131.003 134.177L135.147 127.21C137.467 123.229 138.959 119.58 138.462 118.917C136.97 116.263 134.981 117.756 133.158 122.898L131.169 128.371L127.191 123.395C125.037 120.576 123.214 117.922 123.048 117.092C123.048 116.429 121.39 113.277 119.401 110.126C115.589 104.486 113.103 103.159 110.783 105.482Z" fill="white"/>
<path d="M103.983 111.12C103.32 112.115 103.154 112.945 103.32 113.276C113.596 119.579 118.899 124.389 123.209 131.024C126.026 135.503 129.01 139.152 129.838 139.152C131.164 139.152 127.518 133.18 120.06 122.731C111.109 110.125 106.634 106.807 103.983 111.12Z" fill="white"/>
<path d="M96.0243 119.252C93.0409 122.237 93.0409 122.237 98.0132 123.398C100.665 123.896 106.135 126.716 110.112 129.535C116.411 134.18 119.063 136.834 123.206 142.971C123.869 143.8 125.195 144.132 126.19 143.468C128.841 141.81 117.902 127.545 109.118 121.242C100.665 115.105 100.002 115.105 96.0243 119.252Z" fill="white"/>
<path d="M136.464 129.21C134.475 133.191 133.978 135.347 135.138 134.849C138.287 133.688 143.26 124.565 141.437 123.57C140.608 123.073 138.453 125.561 136.464 129.21Z" fill="white"/>
<path d="M93.2139 127.046C93.2139 128.539 104.982 139.154 106.639 139.154C107.468 139.154 110.617 141.476 113.932 144.296C118.573 148.443 120.396 149.106 121.887 147.613C123.379 145.955 122.55 144.462 118.075 140.481C106.308 130.363 93.2139 123.231 93.2139 127.046Z" fill="white"/>
<path d="M0.22808 181.782C-1.26361 195.218 4.70314 219.932 13.9848 237.68C22.2719 253.271 42.6583 275 55.5863 281.801L63.3762 285.947V295.402C63.3762 310.496 61.3873 309.998 114.922 309.998C143.762 309.998 162.656 309.335 164.645 308.339C167.131 306.847 167.794 304.69 167.794 296.895V287.108L177.407 281.801C182.546 278.815 192.822 270.356 200.114 262.892C219.838 242.988 230.28 220.429 233.263 190.905L234.257 180.621H117.243C52.9344 180.621 0.393823 181.119 0.22808 181.782ZM227.462 192.232C227.462 201.521 221.164 221.756 214.037 235.523C206.247 250.617 189.01 269.029 175.584 276.659L166.634 281.801H116.083H65.6966L57.4095 276.659C43.1555 267.702 25.0895 247.632 17.2996 231.874C11.0014 219.268 5.36612 199.198 5.36612 190.076V186.427H116.414H227.462V192.232ZM164.148 295.402L163.651 304.193L116.083 304.69L68.3485 305.022V295.899V286.777H116.58H164.645L164.148 295.402Z" fill="white"/>
</svg>
