<svg width="659" height="43" viewBox="0 0 659 43" fill="none" xmlns="http://www.w3.org/2000/svg">
<path d="M0.432702 41.942L12.9607 1.4H21.7187L34.3047 41.942H26.8807L23.9807 32.14H10.7567L7.8567 41.942H0.432702ZM17.3687 10.1L12.6127 26.108H22.1247L17.3687 10.1ZM58.2293 42.638C55.4453 42.638 52.8739 42.0967 50.5153 41.014C48.1566 39.8927 46.0686 38.4233 44.2512 36.606C42.4339 34.75 41.0033 32.5847 39.9592 30.11C38.9152 27.5967 38.3932 24.8127 38.3932 21.758C38.3932 18.7807 38.9152 16.0353 39.9592 13.522C41.0419 10.97 42.4726 8.74666 44.2512 6.852C46.0299 4.996 48.0986 3.52666 50.4573 2.444C52.8546 1.36133 55.4453 0.819998 58.2293 0.819998C61.1679 0.819998 63.9713 1.49666 66.6393 2.85C69.3073 4.16467 71.7819 6.214 74.0633 8.998L68.4373 13.638C66.8519 11.666 65.2086 10.2547 63.5073 9.404C61.8059 8.51466 60.0466 8.07 58.2293 8.07C56.4893 8.07 54.8653 8.418 53.3573 9.114C51.8879 9.81 50.5539 10.7767 49.3553 12.014C48.1953 13.2127 47.2866 14.6433 46.6293 16.306C45.9719 17.93 45.6433 19.7473 45.6433 21.758C45.6433 23.7687 45.9719 25.586 46.6293 27.21C47.2866 28.7953 48.1953 30.2067 49.3553 31.444C50.5153 32.6813 51.8493 33.648 53.3573 34.344C54.8653 35.04 56.4893 35.388 58.2293 35.388C60.0466 35.388 61.8059 34.9627 63.5073 34.112C65.2086 33.2227 66.8519 31.792 68.4373 29.82L74.0633 34.46C71.7819 37.244 69.3073 39.3127 66.6393 40.666C63.9713 41.9807 61.1679 42.638 58.2293 42.638ZM104.067 42H82.2014V1.4H104.067V7.896H89.1614V19.206H101.225V25.064H89.1614V35.504H104.067V42ZM140.248 42H131.954L122.674 26.166H119.136V42H112.176L112.234 1.4H127.488C129.537 1.4 131.354 1.98 132.94 3.14C134.525 4.3 135.762 5.82733 136.652 7.722C137.58 9.578 138.044 11.5887 138.044 13.754C138.044 15.378 137.715 16.9827 137.058 18.568C136.439 20.1147 135.569 21.5067 134.448 22.744C133.326 23.9813 132.031 24.9093 130.562 25.528L140.248 42ZM130.968 13.754C130.968 12.9807 130.794 12.188 130.446 11.376C130.098 10.5253 129.634 9.81 129.054 9.23C128.474 8.65 127.797 8.36 127.024 8.36H119.136V18.8H127.024C127.797 18.8 128.474 18.5487 129.054 18.046C129.634 17.5433 130.098 16.9053 130.446 16.132C130.794 15.32 130.968 14.5273 130.968 13.754ZM164.748 42.638C161.964 42.638 159.392 42.0967 157.034 41.014C154.675 39.8927 152.587 38.4233 150.77 36.606C148.952 34.75 147.522 32.5847 146.478 30.11C145.434 27.5967 144.912 24.8127 144.912 21.758C144.912 18.7807 145.434 16.0353 146.478 13.522C147.56 10.97 148.991 8.74666 150.77 6.852C152.548 4.996 154.617 3.52666 156.976 2.444C159.373 1.36133 161.964 0.819998 164.748 0.819998C167.686 0.819998 170.49 1.49666 173.158 2.85C175.826 4.16467 178.3 6.214 180.582 8.998L174.956 13.638C173.37 11.666 171.727 10.2547 170.026 9.404C168.324 8.51466 166.565 8.07 164.748 8.07C163.008 8.07 161.384 8.418 159.876 9.114C158.406 9.81 157.072 10.7767 155.874 12.014C154.714 13.2127 153.805 14.6433 153.148 16.306C152.49 17.93 152.162 19.7473 152.162 21.758C152.162 23.7687 152.49 25.586 153.148 27.21C153.805 28.7953 154.714 30.2067 155.874 31.444C157.034 32.6813 158.368 33.648 159.876 34.344C161.384 35.04 163.008 35.388 164.748 35.388C166.565 35.388 168.324 34.9627 170.026 34.112C171.727 33.2227 173.37 31.792 174.956 29.82L180.582 34.46C178.3 37.244 175.826 39.3127 173.158 40.666C170.49 41.9807 167.686 42.638 164.748 42.638ZM187.007 41.942L199.535 1.4H208.293L220.879 41.942H213.455L210.555 32.14H197.331L194.431 41.942H187.007ZM203.943 10.1L199.187 26.108H208.699L203.943 10.1ZM285.72 21.584C285.72 24.368 285.217 26.9973 284.212 29.472C283.245 31.908 281.872 34.0733 280.094 35.968C278.315 37.8627 276.227 39.3513 273.83 40.434C271.471 41.478 268.919 42 266.174 42H253.936V1.226H266.174C268.958 1.226 271.529 1.76733 273.888 2.85C276.285 3.93267 278.354 5.42133 280.094 7.316C281.872 9.21066 283.245 11.376 284.212 13.812C285.217 16.248 285.72 18.8387 285.72 21.584ZM278.528 21.584C278.528 19.0707 277.986 16.828 276.904 14.856C275.821 12.8453 274.332 11.26 272.438 10.1C270.582 8.94 268.494 8.36 266.174 8.36H260.896V34.866H266.174C268.532 34.866 270.64 34.2667 272.496 33.068C274.352 31.8693 275.821 30.2647 276.904 28.254C277.986 26.2433 278.528 24.02 278.528 21.584ZM315.688 42H293.822V1.4H315.688V7.896H300.782V19.206H312.846V25.064H300.782V35.504H315.688V42ZM379.005 42H370.073L355.689 10.448V41.942H348.729V1.4H358.299L372.045 32.314V1.4H379.005V42ZM426.86 21.584C426.86 24.484 426.338 27.21 425.294 29.762C424.288 32.2753 422.877 34.4793 421.06 36.374C419.242 38.2687 417.135 39.7573 414.738 40.84C412.34 41.9227 409.769 42.464 407.024 42.464C404.24 42.464 401.649 41.9227 399.252 40.84C396.854 39.7187 394.747 38.2107 392.93 36.316C391.112 34.3827 389.682 32.1593 388.638 29.646C387.632 27.094 387.13 24.4067 387.13 21.584C387.13 18.7613 387.652 16.1127 388.696 13.638C389.74 11.1247 391.19 8.92067 393.046 7.026C394.902 5.09266 397.028 3.58466 399.426 2.502C401.823 1.41933 404.356 0.877997 407.024 0.877997C409.769 0.877997 412.321 1.41933 414.68 2.502C417.077 3.58466 419.184 5.09266 421.002 7.026C422.858 8.92067 424.288 11.1247 425.294 13.638C426.338 16.1127 426.86 18.7613 426.86 21.584ZM419.668 21.584C419.668 19.032 419.088 16.712 417.928 14.624C416.806 12.536 415.279 10.8733 413.346 9.636C411.451 8.36 409.344 7.722 407.024 7.722C404.704 7.722 402.577 8.36 400.644 9.636C398.71 10.912 397.164 12.6133 396.004 14.74C394.882 16.828 394.322 19.1093 394.322 21.584C394.322 24.136 394.882 26.4753 396.004 28.602C397.164 30.7287 398.71 32.43 400.644 33.706C402.577 34.982 404.704 35.62 407.024 35.62C409.382 35.62 411.509 34.982 413.404 33.706C415.298 32.43 416.806 30.7287 417.928 28.602C419.088 26.4367 419.668 24.0973 419.668 21.584ZM448.473 42.58C446.733 42.58 444.974 42.3093 443.195 41.768C441.455 41.2267 439.812 40.492 438.265 39.564C436.757 38.5973 435.462 37.534 434.379 36.374L439.541 31.386C440.701 32.5847 442.093 33.5513 443.717 34.286C445.38 35.0207 446.927 35.388 448.357 35.388C450.175 35.388 451.702 34.866 452.939 33.822C454.215 32.7393 454.853 31.4633 454.853 29.994C454.853 28.7953 454.409 27.7707 453.519 26.92C452.63 26.0307 451.528 25.3927 450.213 25.006C446.772 24.078 443.833 23.092 441.397 22.048C439 21.004 437.221 19.6313 436.061 17.93C434.901 16.2287 434.476 13.9473 434.785 11.086C435.056 8.84333 435.791 6.98733 436.989 5.518C438.227 4.01 439.773 2.88866 441.629 2.154C443.524 1.41933 445.612 1.052 447.893 1.052C449.943 1.052 452.089 1.38067 454.331 2.038C456.574 2.65667 458.797 3.70066 461.001 5.17L456.071 10.274C454.95 9.65533 453.732 9.13333 452.417 8.708C451.103 8.28267 449.749 8.05066 448.357 8.012C447.275 7.97333 446.231 8.08933 445.225 8.36C444.259 8.592 443.447 9.01733 442.789 9.636C442.132 10.216 441.784 11.0087 441.745 12.014C441.707 13.1353 441.997 14.0053 442.615 14.624C443.234 15.2427 444.085 15.7453 445.167 16.132C446.289 16.5187 447.584 16.944 449.053 17.408C451.76 18.1427 454.061 18.9933 455.955 19.96C457.85 20.888 459.3 22.1447 460.305 23.73C461.311 25.2767 461.813 27.3647 461.813 29.994C461.813 32.3527 461.214 34.4793 460.015 36.374C458.817 38.2687 457.212 39.7767 455.201 40.898C453.191 42.0193 450.948 42.58 448.473 42.58ZM507.935 21.584C507.935 24.484 507.413 27.21 506.369 29.762C505.364 32.2753 503.952 34.4793 502.135 36.374C500.318 38.2687 498.21 39.7573 495.813 40.84C493.416 41.9227 490.844 42.464 488.099 42.464C485.315 42.464 482.724 41.9227 480.327 40.84C477.93 39.7187 475.822 38.2107 474.005 36.316C472.188 34.3827 470.757 32.1593 469.713 29.646C468.708 27.094 468.205 24.4067 468.205 21.584C468.205 18.7613 468.727 16.1127 469.771 13.638C470.815 11.1247 472.265 8.92067 474.121 7.026C475.977 5.09266 478.104 3.58466 480.501 2.502C482.898 1.41933 485.431 0.877997 488.099 0.877997C490.844 0.877997 493.396 1.41933 495.755 2.502C498.152 3.58466 500.26 5.09266 502.077 7.026C503.933 8.92067 505.364 11.1247 506.369 13.638C507.413 16.1127 507.935 18.7613 507.935 21.584ZM500.743 21.584C500.743 19.032 500.163 16.712 499.003 14.624C497.882 12.536 496.354 10.8733 494.421 9.636C492.526 8.36 490.419 7.722 488.099 7.722C485.779 7.722 483.652 8.36 481.719 9.636C479.786 10.912 478.239 12.6133 477.079 14.74C475.958 16.828 475.397 19.1093 475.397 21.584C475.397 24.136 475.958 26.4753 477.079 28.602C478.239 30.7287 479.786 32.43 481.719 33.706C483.652 34.982 485.779 35.62 488.099 35.62C490.458 35.62 492.584 34.982 494.479 33.706C496.374 32.43 497.882 30.7287 499.003 28.602C500.163 26.4367 500.743 24.0973 500.743 21.584ZM543.06 7.78H531.576V42H524.616V7.78H513.132V1.4H543.06V7.78ZM579.235 42H570.941L561.661 26.166H558.123V42H551.163L551.221 1.4H566.475C568.524 1.4 570.342 1.98 571.927 3.14C573.512 4.3 574.75 5.82733 575.639 7.722C576.567 9.578 577.031 11.5887 577.031 13.754C577.031 15.378 576.702 16.9827 576.045 18.568C575.426 20.1147 574.556 21.5067 573.435 22.744C572.314 23.9813 571.018 24.9093 569.549 25.528L579.235 42ZM569.955 13.754C569.955 12.9807 569.781 12.188 569.433 11.376C569.085 10.5253 568.621 9.81 568.041 9.23C567.461 8.65 566.784 8.36 566.011 8.36H558.123V18.8H566.011C566.784 18.8 567.461 18.5487 568.041 18.046C568.621 17.5433 569.085 16.9053 569.433 16.132C569.781 15.32 569.955 14.5273 569.955 13.754ZM623.629 21.584C623.629 24.484 623.107 27.21 622.063 29.762C621.058 32.2753 619.646 34.4793 617.829 36.374C616.012 38.2687 613.904 39.7573 611.507 40.84C609.11 41.9227 606.538 42.464 603.793 42.464C601.009 42.464 598.418 41.9227 596.021 40.84C593.624 39.7187 591.516 38.2107 589.699 36.316C587.882 34.3827 586.451 32.1593 585.407 29.646C584.402 27.094 583.899 24.4067 583.899 21.584C583.899 18.7613 584.421 16.1127 585.465 13.638C586.509 11.1247 587.959 8.92067 589.815 7.026C591.671 5.09266 593.798 3.58466 596.195 2.502C598.592 1.41933 601.125 0.877997 603.793 0.877997C606.538 0.877997 609.09 1.41933 611.449 2.502C613.846 3.58466 615.954 5.09266 617.771 7.026C619.627 8.92067 621.058 11.1247 622.063 13.638C623.107 16.1127 623.629 18.7613 623.629 21.584ZM616.437 21.584C616.437 19.032 615.857 16.712 614.697 14.624C613.576 12.536 612.048 10.8733 610.115 9.636C608.22 8.36 606.113 7.722 603.793 7.722C601.473 7.722 599.346 8.36 597.413 9.636C595.48 10.912 593.933 12.6133 592.773 14.74C591.652 16.828 591.091 19.1093 591.091 21.584C591.091 24.136 591.652 26.4753 592.773 28.602C593.933 30.7287 595.48 32.43 597.413 33.706C599.346 34.982 601.473 35.62 603.793 35.62C606.152 35.62 608.278 34.982 610.173 33.706C612.068 32.43 613.576 30.7287 614.697 28.602C615.857 26.4367 616.437 24.0973 616.437 21.584ZM645.243 42.58C643.503 42.58 641.743 42.3093 639.965 41.768C638.225 41.2267 636.581 40.492 635.035 39.564C633.527 38.5973 632.231 37.534 631.149 36.374L636.311 31.386C637.471 32.5847 638.863 33.5513 640.487 34.286C642.149 35.0207 643.696 35.388 645.127 35.388C646.944 35.388 648.471 34.866 649.709 33.822C650.985 32.7393 651.623 31.4633 651.623 29.994C651.623 28.7953 651.178 27.7707 650.289 26.92C649.399 26.0307 648.297 25.3927 646.983 25.006C643.541 24.078 640.603 23.092 638.167 22.048C635.769 21.004 633.991 19.6313 632.831 17.93C631.671 16.2287 631.245 13.9473 631.555 11.086C631.825 8.84333 632.56 6.98733 633.759 5.518C634.996 4.01 636.543 2.88866 638.399 2.154C640.293 1.41933 642.381 1.052 644.663 1.052C646.712 1.052 648.858 1.38067 651.101 2.038C653.343 2.65667 655.567 3.70066 657.771 5.17L652.841 10.274C651.719 9.65533 650.501 9.13333 649.187 8.708C647.872 8.28267 646.519 8.05066 645.127 8.012C644.044 7.97333 643 8.08933 641.995 8.36C641.028 8.592 640.216 9.01733 639.559 9.636C638.901 10.216 638.553 11.0087 638.515 12.014C638.476 13.1353 638.766 14.0053 639.385 14.624C640.003 15.2427 640.854 15.7453 641.937 16.132C643.058 16.5187 644.353 16.944 645.823 17.408C648.529 18.1427 650.83 18.9933 652.725 19.96C654.619 20.888 656.069 22.1447 657.075 23.73C658.08 25.2767 658.583 27.3647 658.583 29.994C658.583 32.3527 657.983 34.4793 656.785 36.374C655.586 38.2687 653.981 39.7767 651.971 40.898C649.96 42.0193 647.717 42.58 645.243 42.58Z" fill="#2F6A9F"/>
</svg>
