<svg width="1411" height="247" viewBox="0 0 1411 247" fill="none" xmlns="http://www.w3.org/2000/svg">
<g filter="url(#filter0_d_450_1015)">
<rect x="-13" y="5" width="1420" height="242" fill="#F2565B" fill-opacity="0.9" shape-rendering="crispEdges"/>
</g>
<path d="M115.325 49.5272C110.115 54.0217 109.366 54.6809 107.54 56.1791C99.6656 62.7411 97.8691 64.5688 99.3662 64.5688C99.8752 64.5688 100.923 63.7898 108.887 57.5274C111.283 55.6098 115.055 52.6734 117.241 50.9654C119.397 49.2875 121.193 47.7294 121.193 47.5197C121.193 47.1601 119.965 45.8117 119.666 45.8717C119.606 45.8717 117.63 47.5197 115.325 49.5272ZM119.636 47.7594C119.337 47.9691 119.157 48.2388 119.247 48.3287C119.337 48.4485 119.307 48.4785 119.217 48.4186C119.037 48.2987 118.319 48.8081 117.241 49.8268C116.912 50.1265 116.552 50.3362 116.403 50.2763C116.283 50.2164 116.552 49.8268 117.031 49.4074C117.51 48.9579 117.9 48.6583 117.9 48.7182C117.9 48.7781 118.229 48.4785 118.648 48.089C119.037 47.6695 119.546 47.3399 119.756 47.3399C120.025 47.3698 119.965 47.4897 119.636 47.7594Z" fill="white"/>
<path d="M119.188 55.065C116.852 57.9715 114.607 60.7581 114.188 61.2675C109.637 66.8107 106.193 71.3951 106.343 71.7846C106.583 72.4139 107.241 72.294 107.9 71.515C109.547 69.5973 115.954 62.1364 116.104 62.0166C116.194 61.9267 117.601 60.3086 119.248 58.4209C120.894 56.5332 122.661 54.4957 123.2 53.9264C123.709 53.3571 124.427 52.5181 124.757 52.0987L125.356 51.3196L124.697 50.7203C124.338 50.3907 123.888 50.0312 123.709 49.9413C123.559 49.8514 121.493 52.1586 119.188 55.065ZM123.26 52.1286C123.05 52.2784 122.87 52.5481 122.811 52.7878C122.781 52.9976 122.062 53.9264 121.224 54.8253C120.385 55.7242 119.697 56.5632 119.697 56.713C119.697 56.8329 119.547 56.8628 119.367 56.773C119.188 56.6531 119.278 56.3235 119.667 55.934C121.763 53.6867 122.391 52.9376 122.391 52.6979C122.391 52.2784 123.439 51.3196 123.559 51.6192C123.619 51.7691 123.499 52.0088 123.26 52.1286Z" fill="white"/>
<path d="M102.03 64.3856C102.03 64.5354 102.239 64.8051 102.509 65.0448C102.748 65.2545 103.167 65.7639 103.377 66.1834C104.245 67.7715 104.335 67.8614 104.844 67.4419C105.503 66.8726 105.443 66.513 104.694 66.6029C104.335 66.6329 103.976 66.483 103.916 66.2733C103.826 66.0336 103.946 65.9737 104.335 66.1235C104.664 66.2433 104.485 65.9137 103.826 65.2246C102.838 64.1759 102.03 63.8163 102.03 64.3856Z" fill="white"/>
<path d="M101.013 64.9247C100.893 65.0446 101.192 65.494 101.701 65.9135C102.21 66.333 103.079 67.4417 103.647 68.4005L104.665 70.1084L105.414 68.8499C105.833 68.1308 106.103 67.4716 106.013 67.3518C105.743 66.8723 105.384 67.142 105.055 68.0709L104.695 69.0597L103.977 68.1608C103.588 67.6514 103.258 67.172 103.228 67.0222C103.228 66.9023 102.929 66.333 102.57 65.7637C101.881 64.7449 101.432 64.5052 101.013 64.9247Z" fill="white"/>
<path d="M99.7841 65.9425C99.6644 66.1223 99.6344 66.2721 99.6644 66.332C101.521 67.4707 102.479 68.3396 103.257 69.5381C103.766 70.3472 104.305 71.0063 104.455 71.0063C104.694 71.0063 104.036 69.9277 102.688 68.04C101.072 65.7627 100.263 65.1635 99.7841 65.9425Z" fill="white"/>
<path d="M98.3463 67.4112C97.8074 67.9505 97.8074 67.9505 98.7056 68.1603C99.1847 68.2502 100.173 68.7595 100.891 69.2689C102.029 70.1079 102.508 70.5873 103.257 71.696C103.376 71.8458 103.616 71.9057 103.796 71.7859C104.275 71.4862 102.299 68.9094 100.712 67.7707C99.1847 66.6621 99.0649 66.6621 98.3463 67.4112Z" fill="white"/>
<path d="M105.652 69.2107C105.293 69.9298 105.203 70.3193 105.412 70.2294C105.981 70.0197 106.879 68.3717 106.55 68.1919C106.4 68.102 106.011 68.5515 105.652 69.2107Z" fill="white"/>
<path d="M97.8389 68.8201C97.8389 69.0898 99.9647 71.0075 100.264 71.0075C100.414 71.0075 100.983 71.4269 101.581 71.9363C102.42 72.6854 102.749 72.8053 103.019 72.5356C103.288 72.236 103.138 71.9663 102.33 71.2472C100.204 69.4194 97.8389 68.131 97.8389 68.8201Z" fill="white"/>
<path d="M81.0412 78.7075C80.7717 81.1346 81.8496 85.5991 83.5263 88.8052C85.0233 91.6218 88.7061 95.547 91.0415 96.7755L92.4487 97.5246V99.2325C92.4487 101.959 92.0894 101.869 101.76 101.869C106.97 101.869 110.383 101.749 110.743 101.57C111.192 101.3 111.311 100.91 111.311 99.5022V97.7343L113.048 96.7755C113.976 96.2362 115.833 94.708 117.15 93.3597C120.713 89.7641 122.599 85.689 123.138 80.3555L123.318 78.4978H102.18C90.5624 78.4978 81.0711 78.5877 81.0412 78.7075ZM122.09 80.5952C122.09 82.2732 120.952 85.9287 119.665 88.4157C118.258 91.1424 115.144 94.4683 112.719 95.8466L111.102 96.7755H101.97H92.8679L91.3708 95.8466C88.7959 94.2286 85.5323 90.603 84.1251 87.7565C82.9874 85.4793 81.9694 81.8537 81.9694 80.2057V79.5465H102.03H122.09V80.5952ZM110.653 99.2325L110.563 100.821L101.97 100.91L93.3469 100.97V99.3224V97.6744H102.06H110.743L110.653 99.2325Z" fill="white"/>
<path d="M141.975 84.8633V70.128H145.238L149.574 80.969L153.932 70.128H157.194V84.8633H155.805V71.6226H154.837L150.416 82.5056H148.774L144.333 71.6226H143.364V84.8633H141.975ZM177.724 77.5167C177.724 78.5833 177.534 79.5796 177.155 80.5059C176.79 81.418 176.278 82.218 175.618 82.9056C174.959 83.5932 174.194 84.1265 173.324 84.5054C172.454 84.8843 171.521 85.0738 170.524 85.0738C169.514 85.0738 168.574 84.8843 167.704 84.5054C166.833 84.1125 166.069 83.5722 165.409 82.8845C164.749 82.1829 164.23 81.3759 163.851 80.4638C163.486 79.5516 163.304 78.5692 163.304 77.5167C163.304 76.4642 163.493 75.4818 163.872 74.5696C164.251 73.6434 164.778 72.8365 165.451 72.1489C166.125 71.4472 166.897 70.8999 167.767 70.5069C168.637 70.114 169.556 69.9175 170.524 69.9175C171.521 69.9175 172.454 70.121 173.324 70.528C174.208 70.9209 174.973 71.4682 175.618 72.1699C176.278 72.8716 176.79 73.6785 177.155 74.5907C177.534 75.5029 177.724 76.4782 177.724 77.5167ZM176.313 77.5167C176.313 76.6607 176.166 75.8537 175.871 75.0959C175.576 74.3241 175.162 73.6504 174.629 73.0751C174.096 72.4857 173.478 72.0226 172.777 71.6857C172.089 71.3489 171.338 71.1805 170.524 71.1805C169.71 71.1805 168.953 71.3489 168.251 71.6857C167.549 72.0085 166.932 72.4646 166.398 73.054C165.879 73.6434 165.465 74.3241 165.156 75.0959C164.862 75.8537 164.714 76.6607 164.714 77.5167C164.714 78.3727 164.862 79.1797 165.156 79.9375C165.451 80.6953 165.865 81.3689 166.398 81.9583C166.932 82.5337 167.549 82.9898 168.251 83.3266C168.953 83.6634 169.71 83.8318 170.524 83.8318C171.338 83.8318 172.096 83.6704 172.798 83.3477C173.499 83.0108 174.11 82.5548 174.629 81.9794C175.162 81.39 175.576 80.7164 175.871 79.9585C176.166 79.2007 176.313 78.3868 176.313 77.5167ZM190.704 84.8633H183.863V70.128H185.252V83.5582H190.704V84.8633ZM210.894 77.5167C210.894 78.5833 210.705 79.5796 210.326 80.5059C209.961 81.418 209.449 82.218 208.789 82.9056C208.13 83.5932 207.365 84.1265 206.495 84.5054C205.625 84.8843 204.691 85.0738 203.695 85.0738C202.685 85.0738 201.744 84.8843 200.874 84.5054C200.004 84.1125 199.239 83.5722 198.58 82.8845C197.92 82.1829 197.401 81.3759 197.022 80.4638C196.657 79.5516 196.475 78.5692 196.475 77.5167C196.475 76.4642 196.664 75.4818 197.043 74.5696C197.422 73.6434 197.948 72.8365 198.622 72.1489C199.296 71.4472 200.067 70.8999 200.937 70.5069C201.808 70.114 202.727 69.9175 203.695 69.9175C204.691 69.9175 205.625 70.121 206.495 70.528C207.379 70.9209 208.144 71.4682 208.789 72.1699C209.449 72.8716 209.961 73.6785 210.326 74.5907C210.705 75.5029 210.894 76.4782 210.894 77.5167ZM209.484 77.5167C209.484 76.6607 209.337 75.8537 209.042 75.0959C208.747 74.3241 208.333 73.6504 207.8 73.0751C207.267 72.4857 206.649 72.0226 205.947 71.6857C205.26 71.3489 204.509 71.1805 203.695 71.1805C202.881 71.1805 202.123 71.3489 201.422 71.6857C200.72 72.0085 200.102 72.4646 199.569 73.054C199.05 73.6434 198.636 74.3241 198.327 75.0959C198.033 75.8537 197.885 76.6607 197.885 77.5167C197.885 78.3727 198.033 79.1797 198.327 79.9375C198.622 80.6953 199.036 81.3689 199.569 81.9583C200.102 82.5337 200.72 82.9898 201.422 83.3266C202.123 83.6634 202.881 83.8318 203.695 83.8318C204.509 83.8318 205.267 83.6704 205.969 83.3477C206.67 83.0108 207.281 82.5548 207.8 81.9794C208.333 81.39 208.747 80.7164 209.042 79.9585C209.337 79.2007 209.484 78.3868 209.484 77.5167ZM226.422 84.8633H224.801L219.244 78.5061L218.36 79.2428V84.8633H216.992V70.107H218.36V77.3483L224.675 70.0859H226.422L220.212 77.3693L226.422 84.8633ZM232.318 84.8633L237.37 70.128H239.159L244.211 84.8633H242.738L241.454 81.0742H235.076L233.792 84.8633H232.318ZM238.254 71.7699L235.476 79.9164H241.054L238.254 71.7699ZM249.675 71.2016C249.675 70.9069 249.773 70.6543 249.969 70.4438C250.18 70.2333 250.447 70.128 250.769 70.128C251.05 70.128 251.289 70.2473 251.485 70.4859C251.696 70.7104 251.794 70.97 251.78 71.2647C251.766 71.4191 251.71 71.6577 251.611 71.9805C251.513 72.3032 251.387 72.6541 251.232 73.033C251.092 73.3978 250.959 73.7417 250.832 74.0644C250.706 74.3732 250.608 74.5907 250.538 74.717L250.011 74.4854C250.068 74.3872 250.145 74.2118 250.243 73.9592C250.341 73.6926 250.432 73.4049 250.517 73.0961C250.615 72.7874 250.685 72.4997 250.727 72.2331C250.418 72.2331 250.166 72.1348 249.969 71.9384C249.773 71.7278 249.675 71.4823 249.675 71.2016ZM259.071 84.8633H257.682V70.128H259.071V84.8633Z" fill="white"/>
<path d="M913.993 161.391L914.005 152.991H917.233C917.633 152.991 917.989 153.103 918.301 153.327C918.621 153.551 918.873 153.847 919.057 154.215C919.241 154.575 919.333 154.963 919.333 155.379C919.333 155.763 919.233 156.139 919.033 156.507C918.841 156.875 918.581 157.179 918.253 157.419C917.933 157.651 917.581 157.767 917.197 157.767H914.785V161.391H913.993ZM914.785 156.999H917.185C917.433 156.999 917.661 156.919 917.869 156.759C918.077 156.599 918.241 156.395 918.361 156.147C918.489 155.899 918.553 155.643 918.553 155.379C918.553 155.091 918.497 154.827 918.385 154.587C918.273 154.339 918.113 154.143 917.905 153.999C917.705 153.847 917.477 153.771 917.221 153.771H914.785V156.999ZM925.001 161.535C924.433 161.535 923.929 161.411 923.489 161.163C923.057 160.907 922.717 160.555 922.469 160.107C922.221 159.651 922.097 159.123 922.097 158.523C922.097 157.819 922.225 157.231 922.481 156.759C922.745 156.287 923.097 155.931 923.537 155.691C923.977 155.451 924.465 155.331 925.001 155.331C925.569 155.331 926.073 155.451 926.513 155.691C926.953 155.931 927.293 156.287 927.533 156.759C927.781 157.231 927.905 157.819 927.905 158.523C927.905 159.123 927.781 159.651 927.533 160.107C927.293 160.555 926.953 160.907 926.513 161.163C926.073 161.411 925.569 161.535 925.001 161.535ZM925.001 160.767C925.457 160.767 925.845 160.667 926.165 160.467C926.485 160.267 926.725 159.999 926.885 159.663C927.053 159.319 927.137 158.939 927.137 158.523C927.137 157.819 926.953 157.239 926.585 156.783C926.217 156.327 925.689 156.099 925.001 156.099C924.529 156.099 924.133 156.207 923.813 156.423C923.501 156.631 923.265 156.919 923.105 157.287C922.945 157.647 922.865 158.059 922.865 158.523C922.865 158.947 922.945 159.331 923.105 159.675C923.265 160.011 923.501 160.279 923.813 160.479C924.133 160.671 924.529 160.767 925.001 160.767ZM931.39 161.391V152.991H932.182V157.527L934.366 155.511H935.482L932.95 157.935L935.578 161.391H934.654L932.326 158.463L932.182 158.631V161.391H931.39ZM943.869 158.595H939.045C939.053 159.163 939.193 159.619 939.465 159.963C939.737 160.307 940.085 160.539 940.509 160.659C940.941 160.771 941.405 160.775 941.901 160.671C942.397 160.567 942.873 160.347 943.329 160.011L943.737 160.635C943.361 160.923 942.965 161.135 942.549 161.271C942.133 161.407 941.713 161.483 941.289 161.499C940.297 161.531 939.533 161.255 938.997 160.671C938.461 160.087 938.193 159.275 938.193 158.235C938.193 157.339 938.441 156.631 938.937 156.111C939.433 155.591 940.165 155.331 941.133 155.331C941.749 155.331 942.277 155.459 942.717 155.715C943.165 155.971 943.493 156.351 943.701 156.855C943.797 157.087 943.857 157.351 943.881 157.647C943.905 157.943 943.901 158.259 943.869 158.595ZM941.157 156.075C940.781 156.075 940.433 156.139 940.113 156.267C939.793 156.395 939.533 156.595 939.333 156.867C939.141 157.131 939.045 157.479 939.045 157.911H943.149C943.149 157.303 942.969 156.847 942.609 156.543C942.249 156.231 941.765 156.075 941.157 156.075ZM954.446 161.391V152.991H956.306L958.778 159.171L961.262 152.991H963.122V161.391H962.33V153.843H961.778L959.258 160.047H958.322L955.79 153.843H955.238V161.391H954.446ZM969.509 161.535C968.941 161.535 968.437 161.411 967.997 161.163C967.565 160.907 967.225 160.555 966.977 160.107C966.729 159.651 966.605 159.123 966.605 158.523C966.605 157.819 966.733 157.231 966.989 156.759C967.253 156.287 967.605 155.931 968.045 155.691C968.485 155.451 968.973 155.331 969.509 155.331C970.077 155.331 970.581 155.451 971.021 155.691C971.461 155.931 971.801 156.287 972.041 156.759C972.289 157.231 972.413 157.819 972.413 158.523C972.413 159.123 972.289 159.651 972.041 160.107C971.801 160.555 971.461 160.907 971.021 161.163C970.581 161.411 970.077 161.535 969.509 161.535ZM969.509 160.767C969.965 160.767 970.353 160.667 970.673 160.467C970.993 160.267 971.233 159.999 971.393 159.663C971.561 159.319 971.645 158.939 971.645 158.523C971.645 157.819 971.461 157.239 971.093 156.783C970.725 156.327 970.197 156.099 969.509 156.099C969.037 156.099 968.641 156.207 968.321 156.423C968.009 156.631 967.773 156.919 967.613 157.287C967.453 157.647 967.373 158.059 967.373 158.523C967.373 158.947 967.453 159.331 967.613 159.675C967.773 160.011 968.009 160.279 968.321 160.479C968.641 160.671 969.037 160.767 969.509 160.767ZM976.69 161.391H975.898V152.991H976.69V161.391ZM983.074 161.535C982.506 161.535 982.002 161.411 981.562 161.163C981.13 160.907 980.79 160.555 980.542 160.107C980.294 159.651 980.17 159.123 980.17 158.523C980.17 157.819 980.298 157.231 980.554 156.759C980.818 156.287 981.17 155.931 981.61 155.691C982.05 155.451 982.538 155.331 983.074 155.331C983.642 155.331 984.146 155.451 984.586 155.691C985.026 155.931 985.366 156.287 985.606 156.759C985.854 157.231 985.978 157.819 985.978 158.523C985.978 159.123 985.854 159.651 985.606 160.107C985.366 160.555 985.026 160.907 984.586 161.163C984.146 161.411 983.642 161.535 983.074 161.535ZM983.074 160.767C983.53 160.767 983.918 160.667 984.238 160.467C984.558 160.267 984.798 159.999 984.958 159.663C985.126 159.319 985.21 158.939 985.21 158.523C985.21 157.819 985.026 157.239 984.658 156.783C984.29 156.327 983.762 156.099 983.074 156.099C982.602 156.099 982.206 156.207 981.886 156.423C981.574 156.631 981.338 156.919 981.178 157.287C981.018 157.647 980.938 158.059 980.938 158.523C980.938 158.947 981.018 159.331 981.178 159.675C981.338 160.011 981.574 160.279 981.886 160.479C982.206 160.671 982.602 160.767 983.074 160.767ZM989.464 161.391V152.991H990.256V157.527L992.44 155.511H993.556L991.024 157.935L993.652 161.391H992.728L990.4 158.463L990.256 158.631V161.391H989.464ZM998.318 161.451C997.95 161.443 997.614 161.375 997.31 161.247C997.006 161.119 996.762 160.923 996.578 160.659C996.394 160.395 996.302 160.067 996.302 159.675C996.302 159.059 996.478 158.579 996.83 158.235C997.182 157.891 997.67 157.675 998.294 157.587C998.918 157.499 999.638 157.527 1000.45 157.671V157.215C1000.45 156.903 1000.36 156.659 1000.17 156.483C999.982 156.299 999.742 156.175 999.446 156.111C999.158 156.047 998.85 156.039 998.522 156.087C998.202 156.135 997.902 156.235 997.622 156.387C997.35 156.539 997.142 156.735 996.998 156.975L996.482 156.435C996.722 156.139 997.006 155.903 997.334 155.727C997.67 155.551 998.022 155.439 998.39 155.391C998.758 155.335 999.114 155.335 999.458 155.391C999.81 155.447 1000.12 155.555 1000.39 155.715C1000.71 155.875 1000.92 156.087 1001.03 156.351C1001.15 156.615 1001.22 156.923 1001.23 157.275C1001.25 157.619 1001.26 157.995 1001.27 158.403L1001.26 161.391H1000.47V160.827C1000.16 161.035 999.818 161.191 999.434 161.295C999.058 161.399 998.686 161.451 998.318 161.451ZM1000.45 160.059V158.307C999.798 158.219 999.21 158.199 998.69 158.247C998.178 158.295 997.774 158.435 997.478 158.667C997.19 158.899 997.046 159.235 997.046 159.675C997.046 159.955 997.126 160.175 997.286 160.335C997.454 160.495 997.666 160.603 997.922 160.659C998.186 160.707 998.47 160.715 998.774 160.683C999.086 160.651 999.39 160.583 999.686 160.479C999.982 160.367 1000.24 160.227 1000.45 160.059ZM1004.51 153.603C1004.51 153.435 1004.57 153.291 1004.68 153.171C1004.8 153.051 1004.95 152.991 1005.13 152.991C1005.29 152.991 1005.43 153.059 1005.54 153.195C1005.66 153.323 1005.72 153.471 1005.71 153.639C1005.7 153.727 1005.67 153.863 1005.61 154.047C1005.56 154.231 1005.49 154.431 1005.4 154.647C1005.32 154.855 1005.24 155.051 1005.17 155.235C1005.1 155.411 1005.04 155.535 1005 155.607L1004.7 155.475C1004.73 155.419 1004.78 155.319 1004.83 155.175C1004.89 155.023 1004.94 154.859 1004.99 154.683C1005.05 154.507 1005.09 154.343 1005.11 154.191C1004.93 154.191 1004.79 154.135 1004.68 154.023C1004.57 153.903 1004.51 153.763 1004.51 153.603ZM1009.64 154.575C1009.48 154.575 1009.34 154.523 1009.23 154.419C1009.13 154.307 1009.07 154.175 1009.07 154.023C1009.07 153.863 1009.13 153.731 1009.23 153.627C1009.34 153.515 1009.48 153.459 1009.64 153.459C1009.79 153.459 1009.92 153.515 1010.02 153.627C1010.13 153.731 1010.19 153.863 1010.19 154.023C1010.19 154.175 1010.13 154.307 1010.02 154.419C1009.92 154.523 1009.79 154.575 1009.64 154.575ZM1010.01 161.391H1009.25V155.391H1010.01V161.391ZM1020.63 157.215C1020.63 156.631 1020.74 156.083 1020.96 155.571C1021.17 155.059 1021.47 154.607 1021.84 154.215C1022.22 153.823 1022.65 153.515 1023.14 153.291C1023.64 153.067 1024.16 152.955 1024.72 152.955C1025.29 152.955 1025.82 153.067 1026.31 153.291C1026.8 153.515 1027.24 153.823 1027.6 154.215C1027.98 154.607 1028.27 155.063 1028.48 155.583C1028.69 156.095 1028.79 156.639 1028.79 157.215C1028.79 157.807 1028.68 158.359 1028.47 158.871C1028.26 159.375 1027.97 159.819 1027.59 160.203C1027.22 160.587 1026.79 160.887 1026.3 161.103C1025.81 161.319 1025.28 161.427 1024.72 161.427C1024.16 161.427 1023.62 161.319 1023.13 161.103C1022.63 160.879 1022.2 160.575 1021.82 160.191C1021.45 159.799 1021.16 159.351 1020.94 158.847C1020.74 158.335 1020.63 157.791 1020.63 157.215ZM1021.4 157.215C1021.4 157.695 1021.48 158.147 1021.65 158.571C1021.82 158.987 1022.06 159.359 1022.36 159.687C1022.66 160.015 1023.02 160.275 1023.42 160.467C1023.82 160.651 1024.25 160.743 1024.72 160.743C1025.19 160.743 1025.62 160.651 1026.02 160.467C1026.42 160.275 1026.77 160.019 1027.06 159.699C1027.37 159.371 1027.6 158.995 1027.77 158.571C1027.94 158.147 1028.02 157.695 1028.02 157.215C1028.02 156.743 1027.94 156.291 1027.77 155.859C1027.6 155.427 1027.37 155.047 1027.06 154.719C1026.77 154.383 1026.42 154.119 1026.02 153.927C1025.62 153.735 1025.19 153.639 1024.72 153.639C1024.25 153.639 1023.82 153.735 1023.42 153.927C1023.02 154.119 1022.66 154.383 1022.36 154.719C1022.06 155.047 1021.82 155.427 1021.65 155.859C1021.48 156.291 1021.4 156.743 1021.4 157.215ZM1022.42 157.251C1022.42 156.691 1022.54 156.219 1022.79 155.835C1023.05 155.443 1023.38 155.159 1023.78 154.983C1024.18 154.799 1024.62 154.743 1025.08 154.815C1025.55 154.879 1025.99 155.091 1026.42 155.451L1026.03 155.943C1025.7 155.687 1025.37 155.535 1025.02 155.487C1024.68 155.439 1024.36 155.479 1024.06 155.607C1023.78 155.727 1023.54 155.927 1023.36 156.207C1023.17 156.487 1023.08 156.835 1023.08 157.251C1023.08 157.675 1023.18 158.035 1023.37 158.331C1023.56 158.627 1023.8 158.847 1024.1 158.991C1024.4 159.127 1024.73 159.167 1025.07 159.111C1025.42 159.055 1025.74 158.879 1026.04 158.583L1026.42 159.087C1026.07 159.399 1025.72 159.607 1025.35 159.711C1024.98 159.807 1024.62 159.819 1024.27 159.747C1023.92 159.667 1023.61 159.515 1023.33 159.291C1023.05 159.067 1022.83 158.783 1022.66 158.439C1022.5 158.087 1022.42 157.691 1022.42 157.251ZM1039.3 161.391V160.707C1039.3 160.275 1039.38 159.935 1039.55 159.687C1039.73 159.431 1039.96 159.219 1040.25 159.051C1040.54 158.883 1040.87 158.711 1041.22 158.535C1042.02 158.151 1042.68 157.727 1043.21 157.263C1043.75 156.791 1044.04 156.283 1044.1 155.739C1044.13 155.371 1044.05 155.035 1043.85 154.731C1043.66 154.419 1043.38 154.171 1043.03 153.987C1042.69 153.795 1042.31 153.699 1041.89 153.699C1041.39 153.699 1040.98 153.799 1040.66 153.999C1040.34 154.199 1040.16 154.535 1040.1 155.007H1039.25C1039.28 154.607 1039.4 154.251 1039.6 153.939C1039.8 153.627 1040.1 153.379 1040.49 153.195C1040.88 153.011 1041.38 152.919 1042 152.919C1042.58 152.919 1043.09 153.047 1043.52 153.303C1043.96 153.559 1044.29 153.891 1044.53 154.299C1044.77 154.699 1044.89 155.131 1044.89 155.595C1044.89 156.163 1044.74 156.659 1044.45 157.083C1044.15 157.499 1043.76 157.875 1043.26 158.211C1042.77 158.539 1042.24 158.859 1041.66 159.171C1041.3 159.363 1041 159.523 1040.79 159.651C1040.57 159.771 1040.41 159.903 1040.31 160.047C1040.21 160.183 1040.16 160.375 1040.16 160.623H1044.83V161.391H1039.3ZM1054.42 160.179C1054.13 160.571 1053.76 160.883 1053.31 161.115C1052.86 161.339 1052.34 161.451 1051.74 161.451C1051.13 161.451 1050.6 161.339 1050.16 161.115C1049.72 160.883 1049.35 160.571 1049.06 160.179C1048.78 159.787 1048.56 159.335 1048.4 158.823C1048.26 158.303 1048.19 157.759 1048.19 157.191C1048.19 156.615 1048.26 156.067 1048.4 155.547C1048.55 155.027 1048.77 154.575 1049.06 154.191C1049.35 153.807 1049.72 153.503 1050.17 153.279C1050.62 153.047 1051.14 152.931 1051.74 152.931C1052.34 152.931 1052.86 153.047 1053.31 153.279C1053.76 153.511 1054.13 153.823 1054.42 154.215C1054.71 154.607 1054.93 155.059 1055.08 155.571C1055.22 156.083 1055.29 156.623 1055.29 157.191C1055.29 157.759 1055.22 158.303 1055.08 158.823C1054.93 159.335 1054.71 159.787 1054.42 160.179ZM1053.84 154.767C1053.62 154.447 1053.34 154.199 1052.98 154.023C1052.62 153.839 1052.21 153.747 1051.74 153.747C1051.26 153.747 1050.84 153.839 1050.49 154.023C1050.14 154.199 1049.85 154.447 1049.63 154.767C1049.4 155.087 1049.23 155.455 1049.12 155.871C1049.03 156.287 1048.98 156.727 1048.98 157.191C1048.98 157.655 1049.03 158.095 1049.12 158.511C1049.23 158.927 1049.39 159.295 1049.62 159.615C1049.84 159.935 1050.13 160.191 1050.48 160.383C1050.84 160.567 1051.26 160.659 1051.74 160.659C1052.21 160.659 1052.62 160.567 1052.98 160.383C1053.34 160.191 1053.62 159.935 1053.84 159.615C1054.07 159.295 1054.24 158.927 1054.33 158.511C1054.44 158.095 1054.49 157.655 1054.49 157.191C1054.49 156.727 1054.44 156.287 1054.33 155.871C1054.24 155.447 1054.07 155.079 1053.84 154.767ZM1058.84 161.391V160.707C1058.84 160.275 1058.93 159.935 1059.09 159.687C1059.27 159.431 1059.5 159.219 1059.79 159.051C1060.09 158.883 1060.41 158.711 1060.76 158.535C1061.56 158.151 1062.23 157.727 1062.75 157.263C1063.29 156.791 1063.59 156.283 1063.64 155.739C1063.67 155.371 1063.59 155.035 1063.39 154.731C1063.2 154.419 1062.93 154.171 1062.57 153.987C1062.23 153.795 1061.85 153.699 1061.43 153.699C1060.93 153.699 1060.52 153.799 1060.2 153.999C1059.89 154.199 1059.7 154.535 1059.65 155.007H1058.79C1058.83 154.607 1058.94 154.251 1059.14 153.939C1059.34 153.627 1059.64 153.379 1060.03 153.195C1060.42 153.011 1060.93 152.919 1061.54 152.919C1062.13 152.919 1062.63 153.047 1063.07 153.303C1063.5 153.559 1063.83 153.891 1064.07 154.299C1064.31 154.699 1064.43 155.131 1064.43 155.595C1064.43 156.163 1064.29 156.659 1063.99 157.083C1063.69 157.499 1063.3 157.875 1062.8 158.211C1062.31 158.539 1061.78 158.859 1061.21 159.171C1060.84 159.363 1060.55 159.523 1060.33 159.651C1060.11 159.771 1059.95 159.903 1059.85 160.047C1059.75 160.183 1059.71 160.375 1059.71 160.623H1064.37V161.391H1058.84ZM1073.81 159.063H1072.52V161.391H1071.74V159.063H1067.73V158.259L1071.05 152.967H1072.52V158.343H1073.81V159.063ZM1071.74 158.343V153.831H1071.35L1068.51 158.343H1071.74ZM1077.39 161.439C1077.23 161.439 1077.09 161.383 1076.98 161.271C1076.87 161.159 1076.81 161.027 1076.81 160.875C1076.81 160.723 1076.87 160.591 1076.98 160.479C1077.09 160.367 1077.23 160.311 1077.39 160.311C1077.54 160.303 1077.67 160.359 1077.79 160.479C1077.9 160.591 1077.95 160.723 1077.95 160.875C1077.95 161.027 1077.9 161.163 1077.79 161.283C1077.67 161.395 1077.54 161.447 1077.39 161.439ZM1094.59 153.711H1091.89V161.391H1091.1V153.711H1088.4V152.991H1094.59V153.711ZM1099.29 161.535C1098.72 161.535 1098.22 161.411 1097.78 161.163C1097.35 160.907 1097.01 160.555 1096.76 160.107C1096.51 159.651 1096.39 159.123 1096.39 158.523C1096.39 157.819 1096.51 157.231 1096.77 156.759C1097.03 156.287 1097.39 155.931 1097.83 155.691C1098.27 155.451 1098.75 155.331 1099.29 155.331C1099.86 155.331 1100.36 155.451 1100.8 155.691C1101.24 155.931 1101.58 156.287 1101.82 156.759C1102.07 157.231 1102.19 157.819 1102.19 158.523C1102.19 159.123 1102.07 159.651 1101.82 160.107C1101.58 160.555 1101.24 160.907 1100.8 161.163C1100.36 161.411 1099.86 161.535 1099.29 161.535ZM1099.29 160.767C1099.75 160.767 1100.13 160.667 1100.45 160.467C1100.77 160.267 1101.01 159.999 1101.17 159.663C1101.34 159.319 1101.43 158.939 1101.43 158.523C1101.43 157.819 1101.24 157.239 1100.87 156.783C1100.51 156.327 1099.98 156.099 1099.29 156.099C1098.82 156.099 1098.42 156.207 1098.1 156.423C1097.79 156.631 1097.55 156.919 1097.39 157.287C1097.23 157.647 1097.15 158.059 1097.15 158.523C1097.15 158.947 1097.23 159.331 1097.39 159.675C1097.55 160.011 1097.79 160.279 1098.1 160.479C1098.42 160.671 1098.82 160.767 1099.29 160.767ZM1107.78 161.415C1106.99 161.367 1106.38 161.063 1105.96 160.503C1105.54 159.943 1105.32 159.227 1105.32 158.355C1105.32 157.755 1105.43 157.231 1105.65 156.783C1105.86 156.327 1106.18 155.971 1106.58 155.715C1107 155.459 1107.5 155.331 1108.07 155.331C1108.32 155.331 1108.57 155.347 1108.83 155.379C1109.08 155.403 1109.38 155.495 1109.73 155.655V152.991H1110.51V161.391H1109.73V160.803C1109.5 160.971 1109.22 161.123 1108.89 161.259C1108.57 161.395 1108.2 161.447 1107.78 161.415ZM1109.73 160.131V156.411C1109.1 156.147 1108.5 156.043 1107.95 156.099C1107.41 156.155 1106.97 156.371 1106.63 156.747C1106.3 157.123 1106.13 157.659 1106.13 158.355C1106.13 158.891 1106.23 159.343 1106.44 159.711C1106.65 160.079 1106.92 160.347 1107.27 160.515C1107.62 160.675 1108.01 160.727 1108.43 160.671C1108.86 160.615 1109.29 160.435 1109.73 160.131ZM1116.9 161.535C1116.33 161.535 1115.83 161.411 1115.39 161.163C1114.95 160.907 1114.61 160.555 1114.37 160.107C1114.12 159.651 1113.99 159.123 1113.99 158.523C1113.99 157.819 1114.12 157.231 1114.38 156.759C1114.64 156.287 1114.99 155.931 1115.43 155.691C1115.87 155.451 1116.36 155.331 1116.9 155.331C1117.47 155.331 1117.97 155.451 1118.41 155.691C1118.85 155.931 1119.19 156.287 1119.43 156.759C1119.68 157.231 1119.8 157.819 1119.8 158.523C1119.8 159.123 1119.68 159.651 1119.43 160.107C1119.19 160.555 1118.85 160.907 1118.41 161.163C1117.97 161.411 1117.47 161.535 1116.9 161.535ZM1116.9 160.767C1117.35 160.767 1117.74 160.667 1118.06 160.467C1118.38 160.267 1118.62 159.999 1118.78 159.663C1118.95 159.319 1119.03 158.939 1119.03 158.523C1119.03 157.819 1118.85 157.239 1118.48 156.783C1118.11 156.327 1117.59 156.099 1116.9 156.099C1116.43 156.099 1116.03 156.207 1115.71 156.423C1115.4 156.631 1115.16 156.919 1115 157.287C1114.84 157.647 1114.76 158.059 1114.76 158.523C1114.76 158.947 1114.84 159.331 1115 159.675C1115.16 160.011 1115.4 160.279 1115.71 160.479C1116.03 160.671 1116.43 160.767 1116.9 160.767ZM1122.93 160.743L1123.4 160.215C1123.66 160.407 1123.92 160.555 1124.18 160.659C1124.44 160.755 1124.7 160.799 1124.96 160.791C1125.12 160.791 1125.27 160.767 1125.42 160.719C1125.57 160.671 1125.71 160.599 1125.85 160.503C1126.02 160.375 1126.13 160.215 1126.2 160.023C1126.26 159.831 1126.26 159.643 1126.18 159.459C1126.12 159.275 1126 159.127 1125.82 159.015C1125.66 158.903 1125.46 158.807 1125.22 158.727C1125 158.647 1124.77 158.571 1124.53 158.499C1124.29 158.419 1124.06 158.319 1123.84 158.199C1123.47 157.983 1123.22 157.723 1123.09 157.419C1122.97 157.115 1122.95 156.815 1123.04 156.519C1123.13 156.215 1123.3 155.955 1123.57 155.739C1123.84 155.523 1124.18 155.395 1124.59 155.355C1125 155.315 1125.4 155.351 1125.8 155.463C1126.2 155.575 1126.51 155.735 1126.74 155.943L1126.24 156.435C1126.02 156.307 1125.78 156.211 1125.52 156.147C1125.28 156.075 1125.04 156.039 1124.82 156.039C1124.54 156.047 1124.3 156.115 1124.1 156.243C1123.9 156.371 1123.8 156.567 1123.77 156.831C1123.74 157.079 1123.8 157.275 1123.96 157.419C1124.13 157.563 1124.36 157.687 1124.66 157.791C1124.96 157.895 1125.3 158.011 1125.68 158.139C1126.13 158.299 1126.47 158.543 1126.7 158.871C1126.94 159.199 1127 159.607 1126.89 160.095C1126.82 160.495 1126.64 160.811 1126.34 161.043C1126.05 161.267 1125.7 161.403 1125.3 161.451C1124.9 161.507 1124.48 161.479 1124.06 161.367C1123.64 161.247 1123.27 161.039 1122.93 160.743ZM1138.18 161.391H1137.39V152.991H1138.18V161.391ZM1144.57 161.535C1144 161.535 1143.5 161.411 1143.06 161.163C1142.62 160.907 1142.28 160.555 1142.04 160.107C1141.79 159.651 1141.66 159.123 1141.66 158.523C1141.66 157.819 1141.79 157.231 1142.05 156.759C1142.31 156.287 1142.66 155.931 1143.1 155.691C1143.54 155.451 1144.03 155.331 1144.57 155.331C1145.14 155.331 1145.64 155.451 1146.08 155.691C1146.52 155.931 1146.86 156.287 1147.1 156.759C1147.35 157.231 1147.47 157.819 1147.47 158.523C1147.47 159.123 1147.35 159.651 1147.1 160.107C1146.86 160.555 1146.52 160.907 1146.08 161.163C1145.64 161.411 1145.14 161.535 1144.57 161.535ZM1144.57 160.767C1145.02 160.767 1145.41 160.667 1145.73 160.467C1146.05 160.267 1146.29 159.999 1146.45 159.663C1146.62 159.319 1146.7 158.939 1146.7 158.523C1146.7 157.819 1146.52 157.239 1146.15 156.783C1145.78 156.327 1145.26 156.099 1144.57 156.099C1144.1 156.099 1143.7 156.207 1143.38 156.423C1143.07 156.631 1142.83 156.919 1142.67 157.287C1142.51 157.647 1142.43 158.059 1142.43 158.523C1142.43 158.947 1142.51 159.331 1142.67 159.675C1142.83 160.011 1143.07 160.279 1143.38 160.479C1143.7 160.671 1144.1 160.767 1144.57 160.767ZM1150.6 160.743L1151.07 160.215C1151.34 160.407 1151.6 160.555 1151.85 160.659C1152.12 160.755 1152.38 160.799 1152.63 160.791C1152.79 160.791 1152.94 160.767 1153.09 160.719C1153.24 160.671 1153.38 160.599 1153.52 160.503C1153.69 160.375 1153.8 160.215 1153.87 160.023C1153.93 159.831 1153.93 159.643 1153.86 159.459C1153.79 159.275 1153.67 159.127 1153.5 159.015C1153.33 158.903 1153.13 158.807 1152.9 158.727C1152.67 158.647 1152.44 158.571 1152.2 158.499C1151.96 158.419 1151.73 158.319 1151.52 158.199C1151.14 157.983 1150.89 157.723 1150.76 157.419C1150.64 157.115 1150.62 156.815 1150.71 156.519C1150.8 156.215 1150.98 155.955 1151.24 155.739C1151.51 155.523 1151.85 155.395 1152.26 155.355C1152.67 155.315 1153.07 155.351 1153.47 155.463C1153.87 155.575 1154.18 155.735 1154.41 155.943L1153.92 156.435C1153.69 156.307 1153.45 156.211 1153.2 156.147C1152.95 156.075 1152.71 156.039 1152.49 156.039C1152.21 156.047 1151.97 156.115 1151.77 156.243C1151.58 156.371 1151.47 156.567 1151.44 156.831C1151.41 157.079 1151.48 157.275 1151.64 157.419C1151.8 157.563 1152.04 157.687 1152.33 157.791C1152.64 157.895 1152.98 158.011 1153.35 158.139C1153.8 158.299 1154.14 158.543 1154.37 158.871C1154.61 159.199 1154.68 159.607 1154.56 160.095C1154.49 160.495 1154.31 160.811 1154.01 161.043C1153.72 161.267 1153.38 161.403 1152.97 161.451C1152.57 161.507 1152.16 161.479 1151.73 161.367C1151.32 161.247 1150.94 161.039 1150.6 160.743ZM1167.4 161.415C1166.61 161.367 1166 161.063 1165.58 160.503C1165.15 159.943 1164.94 159.227 1164.94 158.355C1164.94 157.755 1165.05 157.231 1165.27 156.783C1165.48 156.327 1165.79 155.971 1166.2 155.715C1166.62 155.459 1167.11 155.331 1167.69 155.331C1167.94 155.331 1168.19 155.347 1168.45 155.379C1168.7 155.403 1169 155.495 1169.35 155.655V152.991H1170.13V161.391H1169.35V160.803C1169.11 160.971 1168.83 161.123 1168.51 161.259C1168.19 161.395 1167.82 161.447 1167.4 161.415ZM1169.35 160.131V156.411C1168.71 156.147 1168.12 156.043 1167.57 156.099C1167.03 156.155 1166.59 156.371 1166.25 156.747C1165.91 157.123 1165.75 157.659 1165.75 158.355C1165.75 158.891 1165.85 159.343 1166.06 159.711C1166.27 160.079 1166.54 160.347 1166.89 160.515C1167.24 160.675 1167.63 160.727 1168.05 160.671C1168.47 160.615 1168.91 160.435 1169.35 160.131ZM1179.25 158.595H1174.43C1174.44 159.163 1174.58 159.619 1174.85 159.963C1175.12 160.307 1175.47 160.539 1175.89 160.659C1176.32 160.771 1176.79 160.775 1177.28 160.671C1177.78 160.567 1178.26 160.347 1178.71 160.011L1179.12 160.635C1178.74 160.923 1178.35 161.135 1177.93 161.271C1177.52 161.407 1177.1 161.483 1176.67 161.499C1175.68 161.531 1174.92 161.255 1174.38 160.671C1173.84 160.087 1173.58 159.275 1173.58 158.235C1173.58 157.339 1173.82 156.631 1174.32 156.111C1174.82 155.591 1175.55 155.331 1176.52 155.331C1177.13 155.331 1177.66 155.459 1178.1 155.715C1178.55 155.971 1178.88 156.351 1179.08 156.855C1179.18 157.087 1179.24 157.351 1179.26 157.647C1179.29 157.943 1179.28 158.259 1179.25 158.595ZM1176.54 156.075C1176.16 156.075 1175.82 156.139 1175.5 156.267C1175.18 156.395 1174.92 156.595 1174.72 156.867C1174.52 157.131 1174.43 157.479 1174.43 157.911H1178.53C1178.53 157.303 1178.35 156.847 1177.99 156.543C1177.63 156.231 1177.15 156.075 1176.54 156.075ZM1182.87 161.391V155.487H1183.65V156.075C1183.91 155.787 1184.22 155.599 1184.59 155.511C1184.96 155.423 1185.45 155.463 1186.06 155.631L1185.71 156.339C1185.33 156.203 1184.98 156.187 1184.67 156.291C1184.36 156.387 1184.11 156.551 1183.93 156.783C1183.74 157.015 1183.65 157.255 1183.65 157.503V161.391H1182.87ZM1194.34 158.595H1189.52C1189.52 159.163 1189.66 159.619 1189.94 159.963C1190.21 160.307 1190.56 160.539 1190.98 160.659C1191.41 160.771 1191.88 160.775 1192.37 160.671C1192.87 160.567 1193.34 160.347 1193.8 160.011L1194.21 160.635C1193.83 160.923 1193.44 161.135 1193.02 161.271C1192.6 161.407 1192.18 161.483 1191.76 161.499C1190.77 161.531 1190 161.255 1189.47 160.671C1188.93 160.087 1188.66 159.275 1188.66 158.235C1188.66 157.339 1188.91 156.631 1189.41 156.111C1189.9 155.591 1190.64 155.331 1191.6 155.331C1192.22 155.331 1192.75 155.459 1193.19 155.715C1193.64 155.971 1193.96 156.351 1194.17 156.855C1194.27 157.087 1194.33 157.351 1194.35 157.647C1194.38 157.943 1194.37 158.259 1194.34 158.595ZM1191.63 156.075C1191.25 156.075 1190.9 156.139 1190.58 156.267C1190.26 156.395 1190 156.595 1189.8 156.867C1189.61 157.131 1189.52 157.479 1189.52 157.911H1193.62C1193.62 157.303 1193.44 156.847 1193.08 156.543C1192.72 156.231 1192.24 156.075 1191.63 156.075ZM1202.72 160.635C1202.31 161.003 1201.87 161.251 1201.41 161.379C1200.97 161.499 1200.53 161.511 1200.11 161.415C1199.68 161.327 1199.3 161.147 1198.95 160.875C1198.61 160.595 1198.34 160.243 1198.14 159.819C1197.94 159.387 1197.84 158.895 1197.84 158.343C1197.84 157.799 1197.94 157.319 1198.14 156.903C1198.34 156.487 1198.61 156.151 1198.95 155.895C1199.3 155.639 1199.68 155.471 1200.11 155.391C1200.53 155.311 1200.97 155.335 1201.43 155.463C1201.88 155.583 1202.32 155.819 1202.73 156.171L1202.25 156.747C1201.86 156.435 1201.45 156.247 1201.03 156.183C1200.61 156.119 1200.21 156.167 1199.84 156.327C1199.48 156.479 1199.19 156.727 1198.97 157.071C1198.74 157.415 1198.63 157.839 1198.63 158.343C1198.63 158.879 1198.75 159.335 1198.98 159.711C1199.21 160.079 1199.51 160.351 1199.88 160.527C1200.25 160.695 1200.65 160.743 1201.07 160.671C1201.49 160.599 1201.89 160.383 1202.27 160.023L1202.72 160.635ZM1211.4 161.391H1210.61V157.779C1210.61 157.187 1210.44 156.755 1210.11 156.483C1209.77 156.211 1209.33 156.075 1208.8 156.075C1208.5 156.075 1208.22 156.135 1207.95 156.255C1207.68 156.375 1207.46 156.531 1207.29 156.723C1207.12 156.915 1207.03 157.111 1207.03 157.311V161.391H1206.24V152.991H1207.03V156.075C1207.26 155.803 1207.54 155.611 1207.89 155.499C1208.23 155.387 1208.55 155.331 1208.83 155.331C1209.63 155.355 1210.26 155.571 1210.72 155.979C1211.17 156.387 1211.4 156.987 1211.4 157.779V161.391ZM1217.67 161.535C1217.1 161.535 1216.6 161.411 1216.16 161.163C1215.73 160.907 1215.39 160.555 1215.14 160.107C1214.89 159.651 1214.77 159.123 1214.77 158.523C1214.77 157.819 1214.9 157.231 1215.15 156.759C1215.42 156.287 1215.77 155.931 1216.21 155.691C1216.65 155.451 1217.14 155.331 1217.67 155.331C1218.24 155.331 1218.74 155.451 1219.18 155.691C1219.62 155.931 1219.96 156.287 1220.2 156.759C1220.45 157.231 1220.58 157.819 1220.58 158.523C1220.58 159.123 1220.45 159.651 1220.2 160.107C1219.96 160.555 1219.62 160.907 1219.18 161.163C1218.74 161.411 1218.24 161.535 1217.67 161.535ZM1217.67 160.767C1218.13 160.767 1218.52 160.667 1218.84 160.467C1219.16 160.267 1219.4 159.999 1219.56 159.663C1219.72 159.319 1219.81 158.939 1219.81 158.523C1219.81 157.819 1219.62 157.239 1219.26 156.783C1218.89 156.327 1218.36 156.099 1217.67 156.099C1217.2 156.099 1216.8 156.207 1216.48 156.423C1216.17 156.631 1215.94 156.919 1215.78 157.287C1215.62 157.647 1215.54 158.059 1215.54 158.523C1215.54 158.947 1215.62 159.331 1215.78 159.675C1215.94 160.011 1216.17 160.279 1216.48 160.479C1216.8 160.671 1217.2 160.767 1217.67 160.767ZM1223.71 160.743L1224.17 160.215C1224.44 160.407 1224.7 160.555 1224.95 160.659C1225.22 160.755 1225.48 160.799 1225.73 160.791C1225.89 160.791 1226.05 160.767 1226.19 160.719C1226.34 160.671 1226.49 160.599 1226.62 160.503C1226.79 160.375 1226.91 160.215 1226.97 160.023C1227.03 159.831 1227.03 159.643 1226.96 159.459C1226.89 159.275 1226.77 159.127 1226.6 159.015C1226.43 158.903 1226.23 158.807 1226 158.727C1225.77 158.647 1225.54 158.571 1225.3 158.499C1225.06 158.419 1224.83 158.319 1224.62 158.199C1224.24 157.983 1223.99 157.723 1223.86 157.419C1223.74 157.115 1223.73 156.815 1223.81 156.519C1223.9 156.215 1224.08 155.955 1224.34 155.739C1224.61 155.523 1224.95 155.395 1225.36 155.355C1225.77 155.315 1226.17 155.351 1226.57 155.463C1226.97 155.575 1227.29 155.735 1227.51 155.943L1227.02 156.435C1226.79 156.307 1226.55 156.211 1226.3 156.147C1226.05 156.075 1225.81 156.039 1225.59 156.039C1225.31 156.047 1225.07 156.115 1224.87 156.243C1224.68 156.371 1224.57 156.567 1224.55 156.831C1224.51 157.079 1224.58 157.275 1224.74 157.419C1224.91 157.563 1225.14 157.687 1225.43 157.791C1225.74 157.895 1226.08 158.011 1226.45 158.139C1226.9 158.299 1227.24 158.543 1227.47 158.871C1227.71 159.199 1227.78 159.607 1227.67 160.095C1227.59 160.495 1227.41 160.811 1227.11 161.043C1226.83 161.267 1226.48 161.403 1226.07 161.451C1225.67 161.507 1225.26 161.479 1224.83 161.367C1224.42 161.247 1224.04 161.039 1223.71 160.743ZM1238.17 161.391V155.487H1238.95V156.075C1239.2 155.787 1239.51 155.599 1239.88 155.511C1240.26 155.423 1240.75 155.463 1241.36 155.631L1241.01 156.339C1240.63 156.203 1240.28 156.187 1239.97 156.291C1239.65 156.387 1239.41 156.551 1239.22 156.783C1239.04 157.015 1238.95 157.255 1238.95 157.503V161.391H1238.17ZM1249.64 158.595H1244.81C1244.82 159.163 1244.96 159.619 1245.23 159.963C1245.5 160.307 1245.85 160.539 1246.28 160.659C1246.71 160.771 1247.17 160.775 1247.67 160.671C1248.16 160.567 1248.64 160.347 1249.1 160.011L1249.5 160.635C1249.13 160.923 1248.73 161.135 1248.32 161.271C1247.9 161.407 1247.48 161.483 1247.06 161.499C1246.06 161.531 1245.3 161.255 1244.76 160.671C1244.23 160.087 1243.96 159.275 1243.96 158.235C1243.96 157.339 1244.21 156.631 1244.7 156.111C1245.2 155.591 1245.93 155.331 1246.9 155.331C1247.52 155.331 1248.04 155.459 1248.48 155.715C1248.93 155.971 1249.26 156.351 1249.47 156.855C1249.56 157.087 1249.62 157.351 1249.65 157.647C1249.67 157.943 1249.67 158.259 1249.64 158.595ZM1246.92 156.075C1246.55 156.075 1246.2 156.139 1245.88 156.267C1245.56 156.395 1245.3 156.595 1245.1 156.867C1244.91 157.131 1244.81 157.479 1244.81 157.911H1248.92C1248.92 157.303 1248.74 156.847 1248.38 156.543C1248.02 156.231 1247.53 156.075 1246.92 156.075ZM1253.14 160.743L1253.6 160.215C1253.87 160.407 1254.13 160.555 1254.38 160.659C1254.65 160.755 1254.91 160.799 1255.16 160.791C1255.32 160.791 1255.48 160.767 1255.62 160.719C1255.77 160.671 1255.92 160.599 1256.05 160.503C1256.22 160.375 1256.34 160.215 1256.4 160.023C1256.46 159.831 1256.46 159.643 1256.39 159.459C1256.32 159.275 1256.2 159.127 1256.03 159.015C1255.86 158.903 1255.66 158.807 1255.43 158.727C1255.2 158.647 1254.97 158.571 1254.73 158.499C1254.49 158.419 1254.26 158.319 1254.05 158.199C1253.67 157.983 1253.42 157.723 1253.29 157.419C1253.17 157.115 1253.16 156.815 1253.24 156.519C1253.33 156.215 1253.51 155.955 1253.77 155.739C1254.04 155.523 1254.38 155.395 1254.79 155.355C1255.2 155.315 1255.6 155.351 1256 155.463C1256.4 155.575 1256.72 155.735 1256.94 155.943L1256.45 156.435C1256.22 156.307 1255.98 156.211 1255.73 156.147C1255.48 156.075 1255.24 156.039 1255.02 156.039C1254.74 156.047 1254.5 156.115 1254.3 156.243C1254.11 156.371 1254 156.567 1253.98 156.831C1253.94 157.079 1254.01 157.275 1254.17 157.419C1254.34 157.563 1254.57 157.687 1254.86 157.791C1255.17 157.895 1255.51 158.011 1255.88 158.139C1256.33 158.299 1256.67 158.543 1256.9 158.871C1257.14 159.199 1257.21 159.607 1257.1 160.095C1257.02 160.495 1256.84 160.811 1256.54 161.043C1256.26 161.267 1255.91 161.403 1255.5 161.451C1255.1 161.507 1254.69 161.479 1254.26 161.367C1253.85 161.247 1253.47 161.039 1253.14 160.743ZM1266.04 158.595H1261.21C1261.22 159.163 1261.36 159.619 1261.63 159.963C1261.91 160.307 1262.25 160.539 1262.68 160.659C1263.11 160.771 1263.57 160.775 1264.07 160.671C1264.57 160.567 1265.04 160.347 1265.5 160.011L1265.91 160.635C1265.53 160.923 1265.13 161.135 1264.72 161.271C1264.3 161.407 1263.88 161.483 1263.46 161.499C1262.47 161.531 1261.7 161.255 1261.17 160.671C1260.63 160.087 1260.36 159.275 1260.36 158.235C1260.36 157.339 1260.61 156.631 1261.11 156.111C1261.6 155.591 1262.33 155.331 1263.3 155.331C1263.92 155.331 1264.45 155.459 1264.89 155.715C1265.33 155.971 1265.66 156.351 1265.87 156.855C1265.97 157.087 1266.03 157.351 1266.05 157.647C1266.07 157.943 1266.07 158.259 1266.04 158.595ZM1263.33 156.075C1262.95 156.075 1262.6 156.139 1262.28 156.267C1261.96 156.395 1261.7 156.595 1261.5 156.867C1261.31 157.131 1261.21 157.479 1261.21 157.911H1265.32C1265.32 157.303 1265.14 156.847 1264.78 156.543C1264.42 156.231 1263.93 156.075 1263.33 156.075ZM1269.66 161.391V155.487H1270.44V156.075C1270.69 155.787 1271 155.599 1271.37 155.511C1271.75 155.423 1272.24 155.463 1272.85 155.631L1272.5 156.339C1272.12 156.203 1271.77 156.187 1271.46 156.291C1271.14 156.387 1270.9 156.551 1270.71 156.783C1270.53 157.015 1270.44 157.255 1270.44 157.503V161.391H1269.66ZM1281.29 155.391L1279.03 161.391H1277.97L1275.72 155.391H1276.55L1278.51 160.635L1280.46 155.391H1281.29ZM1286.07 161.451C1285.7 161.443 1285.36 161.375 1285.06 161.247C1284.76 161.119 1284.51 160.923 1284.33 160.659C1284.14 160.395 1284.05 160.067 1284.05 159.675C1284.05 159.059 1284.23 158.579 1284.58 158.235C1284.93 157.891 1285.42 157.675 1286.04 157.587C1286.67 157.499 1287.39 157.527 1288.2 157.671V157.215C1288.2 156.903 1288.11 156.659 1287.92 156.483C1287.73 156.299 1287.49 156.175 1287.2 156.111C1286.91 156.047 1286.6 156.039 1286.27 156.087C1285.95 156.135 1285.65 156.235 1285.37 156.387C1285.1 156.539 1284.89 156.735 1284.75 156.975L1284.23 156.435C1284.47 156.139 1284.76 155.903 1285.08 155.727C1285.42 155.551 1285.77 155.439 1286.14 155.391C1286.51 155.335 1286.86 155.335 1287.21 155.391C1287.56 155.447 1287.87 155.555 1288.14 155.715C1288.46 155.875 1288.67 156.087 1288.78 156.351C1288.9 156.615 1288.97 156.923 1288.98 157.275C1289 157.619 1289.01 157.995 1289.02 158.403L1289.01 161.391H1288.22V160.827C1287.91 161.035 1287.57 161.191 1287.18 161.295C1286.81 161.399 1286.44 161.451 1286.07 161.451ZM1288.2 160.059V158.307C1287.55 158.219 1286.96 158.199 1286.44 158.247C1285.93 158.295 1285.52 158.435 1285.23 158.667C1284.94 158.899 1284.8 159.235 1284.8 159.675C1284.8 159.955 1284.88 160.175 1285.04 160.335C1285.2 160.495 1285.42 160.603 1285.67 160.659C1285.94 160.707 1286.22 160.715 1286.52 160.683C1286.84 160.651 1287.14 160.583 1287.44 160.479C1287.73 160.367 1287.99 160.227 1288.2 160.059ZM1294.96 161.415C1294.17 161.367 1293.56 161.063 1293.13 160.503C1292.71 159.943 1292.5 159.227 1292.5 158.355C1292.5 157.755 1292.61 157.231 1292.82 156.783C1293.04 156.327 1293.35 155.971 1293.76 155.715C1294.17 155.459 1294.67 155.331 1295.25 155.331C1295.49 155.331 1295.75 155.347 1296 155.379C1296.26 155.403 1296.56 155.495 1296.9 155.655V152.991H1297.68V161.391H1296.9V160.803C1296.67 160.971 1296.39 161.123 1296.06 161.259C1295.74 161.395 1295.37 161.447 1294.96 161.415ZM1296.9 160.131V156.411C1296.27 156.147 1295.68 156.043 1295.13 156.099C1294.58 156.155 1294.14 156.371 1293.81 156.747C1293.47 157.123 1293.3 157.659 1293.3 158.355C1293.3 158.891 1293.41 159.343 1293.61 159.711C1293.82 160.079 1294.1 160.347 1294.44 160.515C1294.79 160.675 1295.18 160.727 1295.61 160.671C1296.03 160.615 1296.46 160.435 1296.9 160.131ZM1304.07 161.535C1303.5 161.535 1303 161.411 1302.56 161.163C1302.13 160.907 1301.79 160.555 1301.54 160.107C1301.29 159.651 1301.17 159.123 1301.17 158.523C1301.17 157.819 1301.3 157.231 1301.55 156.759C1301.82 156.287 1302.17 155.931 1302.61 155.691C1303.05 155.451 1303.54 155.331 1304.07 155.331C1304.64 155.331 1305.14 155.451 1305.58 155.691C1306.02 155.931 1306.36 156.287 1306.6 156.759C1306.85 157.231 1306.98 157.819 1306.98 158.523C1306.98 159.123 1306.85 159.651 1306.6 160.107C1306.36 160.555 1306.02 160.907 1305.58 161.163C1305.14 161.411 1304.64 161.535 1304.07 161.535ZM1304.07 160.767C1304.53 160.767 1304.92 160.667 1305.24 160.467C1305.56 160.267 1305.8 159.999 1305.96 159.663C1306.12 159.319 1306.21 158.939 1306.21 158.523C1306.21 157.819 1306.02 157.239 1305.66 156.783C1305.29 156.327 1304.76 156.099 1304.07 156.099C1303.6 156.099 1303.2 156.207 1302.88 156.423C1302.57 156.631 1302.34 156.919 1302.18 157.287C1302.02 157.647 1301.94 158.059 1301.94 158.523C1301.94 158.947 1302.02 159.331 1302.18 159.675C1302.34 160.011 1302.57 160.279 1302.88 160.479C1303.2 160.671 1303.6 160.767 1304.07 160.767ZM1310.11 160.743L1310.57 160.215C1310.84 160.407 1311.1 160.555 1311.35 160.659C1311.62 160.755 1311.88 160.799 1312.13 160.791C1312.29 160.791 1312.45 160.767 1312.59 160.719C1312.74 160.671 1312.89 160.599 1313.02 160.503C1313.19 160.375 1313.31 160.215 1313.37 160.023C1313.43 159.831 1313.43 159.643 1313.36 159.459C1313.29 159.275 1313.17 159.127 1313 159.015C1312.83 158.903 1312.63 158.807 1312.4 158.727C1312.17 158.647 1311.94 158.571 1311.7 158.499C1311.46 158.419 1311.23 158.319 1311.02 158.199C1310.64 157.983 1310.39 157.723 1310.26 157.419C1310.14 157.115 1310.13 156.815 1310.21 156.519C1310.3 156.215 1310.48 155.955 1310.74 155.739C1311.01 155.523 1311.35 155.395 1311.76 155.355C1312.17 155.315 1312.57 155.351 1312.97 155.463C1313.37 155.575 1313.69 155.735 1313.91 155.943L1313.42 156.435C1313.19 156.307 1312.95 156.211 1312.7 156.147C1312.45 156.075 1312.21 156.039 1311.99 156.039C1311.71 156.047 1311.47 156.115 1311.27 156.243C1311.08 156.371 1310.97 156.567 1310.95 156.831C1310.91 157.079 1310.98 157.275 1311.14 157.419C1311.31 157.563 1311.54 157.687 1311.83 157.791C1312.14 157.895 1312.48 158.011 1312.85 158.139C1313.3 158.299 1313.64 158.543 1313.87 158.871C1314.11 159.199 1314.18 159.607 1314.07 160.095C1313.99 160.495 1313.81 160.811 1313.51 161.043C1313.23 161.267 1312.88 161.403 1312.47 161.451C1312.07 161.507 1311.66 161.479 1311.23 161.367C1310.82 161.247 1310.44 161.039 1310.11 160.743Z" fill="white"/>
<path d="M97.6735 148.593C92.9431 148.593 89.1276 152.243 89.1276 156.768C89.1276 161.292 92.9431 164.942 97.6735 164.942C102.404 164.942 106.22 161.292 106.22 156.768C106.22 152.243 102.404 148.593 97.6735 148.593ZM97.6735 162.082C94.6166 162.082 92.1176 159.699 92.1176 156.768C92.1176 153.837 94.6092 151.453 97.6735 151.453C100.738 151.453 103.23 153.837 103.23 156.768C103.23 159.699 100.73 162.082 97.6735 162.082ZM108.562 148.259C108.562 149.319 107.67 150.166 106.569 150.166C105.461 150.166 104.576 149.312 104.576 148.259C104.576 147.206 105.468 146.352 106.569 146.352C107.67 146.352 108.562 147.206 108.562 148.259ZM114.223 150.194C114.096 147.64 113.486 145.378 111.53 143.514C109.581 141.65 107.216 141.066 104.546 140.938C101.794 140.789 93.5456 140.789 90.7936 140.938C88.1309 141.059 85.7657 141.643 83.8096 143.507C81.8535 145.37 81.251 147.633 81.1171 150.187C80.961 152.819 80.961 160.709 81.1171 163.341C81.2436 165.895 81.8535 168.158 83.8096 170.022C85.7657 171.886 88.1235 172.469 90.7936 172.597C93.5456 172.747 101.794 172.747 104.546 172.597C107.216 172.476 109.581 171.893 111.53 170.022C113.479 168.158 114.089 165.895 114.223 163.341C114.379 160.709 114.379 152.826 114.223 150.194ZM110.667 166.166C110.087 167.56 108.964 168.634 107.499 169.196C105.305 170.029 100.098 169.837 97.6735 169.837C95.2488 169.837 90.035 170.022 87.8483 169.196C86.3905 168.642 85.2674 167.567 84.6798 166.166C83.8096 164.067 84.0104 159.087 84.0104 156.768C84.0104 154.448 83.817 149.461 84.6798 147.37C85.26 145.975 86.3831 144.901 87.8483 144.339C90.0424 143.507 95.2488 143.699 97.6735 143.699C100.098 143.699 105.312 143.514 107.499 144.339C108.957 144.894 110.08 145.968 110.667 147.37C111.537 149.468 111.337 154.448 111.337 156.768C111.337 159.087 111.537 164.074 110.667 166.166Z" fill="white"/>
<path d="M169 156.827C169 147.989 161.512 140.826 152.272 140.826C143.032 140.826 135.544 147.989 135.544 156.827C135.544 164.327 140.948 170.628 148.234 172.359V161.715H144.783V156.827H148.234V154.721C148.234 149.277 150.808 146.751 156.402 146.751C157.46 146.751 159.29 146.952 160.041 147.152V151.577C159.649 151.539 158.963 151.514 158.107 151.514C155.363 151.514 154.304 152.508 154.304 155.089V156.827H159.767L158.826 161.715H154.298V172.709C162.583 171.753 169 165.009 169 156.827Z" fill="white"/>
<path d="M996.813 83.6738V72.4738H999.757L1002.57 79.8338L1005.37 72.4738H1008.32V83.6738H1006.62V74.5218H1006.43L1003.4 82.0258H1001.74L998.701 74.5218H998.509V83.6738H996.813ZM1019.15 83.6738H1013.12V72.4738H1019.15V74.0578H1014.82V77.4658H1018.34V78.9058H1014.82V82.0898H1019.15V83.6738ZM1032.16 83.6738H1029.92L1025.49 74.6178V83.6578H1023.79V72.4738H1026.17L1030.45 81.3698V72.4738H1032.16V83.6738ZM1043.49 83.6738V82.6338C1043.16 82.9645 1042.78 83.2365 1042.35 83.4498C1041.94 83.6525 1041.48 83.7538 1040.99 83.7538C1040.19 83.7538 1039.48 83.5725 1038.85 83.2098C1038.22 82.8365 1037.72 82.3458 1037.34 81.7378C1036.98 81.1192 1036.8 80.4312 1036.8 79.6738V72.4738H1038.5L1038.51 79.6738C1038.51 80.1112 1038.62 80.5058 1038.83 80.8578C1039.06 81.2098 1039.35 81.4872 1039.73 81.6898C1040.11 81.8925 1040.53 81.9938 1040.99 81.9938C1041.47 81.9938 1041.9 81.8925 1042.27 81.6898C1042.64 81.4872 1042.94 81.2098 1043.15 80.8578C1043.38 80.5058 1043.49 80.1112 1043.49 79.6738V72.4738H1045.18V79.4338C1045.18 79.4978 1045.18 79.5565 1045.18 79.6098V83.6738H1043.49ZM1040.42 71.3218H1041.31L1041.94 69.1618H1040.8L1040.42 71.3218Z" fill="white"/>
<path d="M1082.13 83.8498C1081.36 83.8498 1080.65 83.7005 1079.99 83.4018C1079.34 83.0925 1078.76 82.6872 1078.26 82.1858C1077.76 81.6738 1077.36 81.0765 1077.08 80.3938C1076.79 79.7005 1076.64 78.9325 1076.64 78.0898C1076.64 77.2685 1076.79 76.5112 1077.08 75.8178C1077.36 75.1138 1077.76 74.5005 1078.26 73.9778C1078.75 73.4658 1079.33 73.0605 1079.99 72.7618C1080.65 72.4632 1081.36 72.3138 1082.13 72.3138C1082.93 72.3138 1083.69 72.4898 1084.42 72.8418C1085.14 73.1938 1085.81 73.7325 1086.42 74.4578L1085.06 75.5938C1084.61 75.0712 1084.14 74.6872 1083.65 74.4418C1083.17 74.1965 1082.66 74.0738 1082.13 74.0738C1081.62 74.0738 1081.14 74.1805 1080.69 74.3938C1080.25 74.5965 1079.86 74.8738 1079.51 75.2258C1079.17 75.5778 1078.9 75.9992 1078.71 76.4898C1078.52 76.9698 1078.42 77.5032 1078.42 78.0898C1078.42 78.6765 1078.52 79.2045 1078.71 79.6738C1078.9 80.1432 1079.17 80.5592 1079.51 80.9218C1079.85 81.2952 1080.24 81.5832 1080.69 81.7858C1081.14 81.9885 1081.62 82.0898 1082.13 82.0898C1082.66 82.0898 1083.17 81.9672 1083.65 81.7218C1084.14 81.4765 1084.61 81.0925 1085.06 80.5698L1086.42 81.6898C1085.81 82.4258 1085.14 82.9698 1084.42 83.3218C1083.69 83.6738 1082.93 83.8498 1082.13 83.8498ZM1101.87 78.0578C1101.87 78.8578 1101.72 79.6098 1101.43 80.3138C1101.16 81.0072 1100.77 81.6152 1100.27 82.1378C1099.76 82.6605 1099.18 83.0712 1098.52 83.3698C1097.86 83.6685 1097.15 83.8178 1096.39 83.8178C1095.63 83.8178 1094.91 83.6685 1094.25 83.3698C1093.59 83.0605 1093.01 82.6445 1092.51 82.1218C1092 81.5885 1091.61 80.9752 1091.32 80.2818C1091.04 79.5885 1090.91 78.8472 1090.91 78.0578C1090.91 77.2685 1091.05 76.5325 1091.34 75.8498C1091.63 75.1565 1092.03 74.5485 1092.54 74.0258C1093.05 73.4925 1093.64 73.0765 1094.3 72.7778C1094.96 72.4792 1095.66 72.3298 1096.39 72.3298C1097.15 72.3298 1097.86 72.4792 1098.52 72.7778C1099.18 73.0765 1099.76 73.4925 1100.27 74.0258C1100.77 74.5485 1101.16 75.1565 1101.43 75.8498C1101.72 76.5432 1101.87 77.2792 1101.87 78.0578ZM1100.11 78.0578C1100.11 77.3112 1099.93 76.6338 1099.59 76.0258C1099.26 75.4072 1098.81 74.9112 1098.25 74.5378C1097.69 74.1645 1097.08 73.9778 1096.39 73.9778C1095.7 73.9778 1095.07 74.1645 1094.51 74.5378C1093.95 74.9112 1093.5 75.4072 1093.16 76.0258C1092.83 76.6445 1092.67 77.3218 1092.67 78.0578C1092.67 78.8045 1092.83 79.4872 1093.16 80.1058C1093.5 80.7245 1093.96 81.2205 1094.52 81.5938C1095.09 81.9672 1095.71 82.1538 1096.39 82.1538C1097.09 82.1538 1097.71 81.9672 1098.27 81.5938C1098.83 81.2205 1099.28 80.7245 1099.61 80.1058C1099.94 79.4765 1100.11 78.7938 1100.11 78.0578ZM1114.87 83.6738H1112.63L1108.2 74.6178V83.6578H1106.5V72.4738H1108.88L1113.16 81.3698V72.4738H1114.87V83.6738ZM1127.76 74.0418H1124.48V83.6738H1122.79V74.0418H1119.51V72.4738H1127.76V74.0418ZM1130.65 83.6578L1134.2 72.4738H1136.34L1139.91 83.6578H1138.1L1137.24 80.9058H1133.32L1132.45 83.6578H1130.65ZM1135.29 74.5858L1133.77 79.4498H1136.79L1135.29 74.5858ZM1148.93 83.8498C1148.16 83.8498 1147.45 83.7005 1146.78 83.4018C1146.13 83.0925 1145.56 82.6872 1145.06 82.1858C1144.55 81.6738 1144.16 81.0765 1143.87 80.3938C1143.58 79.7005 1143.44 78.9325 1143.44 78.0898C1143.44 77.2685 1143.58 76.5112 1143.87 75.8178C1144.16 75.1138 1144.55 74.5005 1145.06 73.9778C1145.55 73.4658 1146.12 73.0605 1146.78 72.7618C1147.45 72.4632 1148.16 72.3138 1148.93 72.3138C1149.73 72.3138 1150.49 72.4898 1151.22 72.8418C1151.94 73.1938 1152.61 73.7325 1153.22 74.4578L1151.86 75.5938C1151.41 75.0712 1150.94 74.6872 1150.45 74.4418C1149.97 74.1965 1149.46 74.0738 1148.93 74.0738C1148.42 74.0738 1147.94 74.1805 1147.49 74.3938C1147.05 74.5965 1146.66 74.8738 1146.3 75.2258C1145.96 75.5778 1145.7 75.9992 1145.5 76.4898C1145.31 76.9698 1145.22 77.5032 1145.22 78.0898C1145.22 78.6765 1145.31 79.2045 1145.5 79.6738C1145.7 80.1432 1145.96 80.5592 1146.3 80.9218C1146.65 81.2952 1147.04 81.5832 1147.49 81.7858C1147.94 81.9885 1148.42 82.0898 1148.93 82.0898C1149.46 82.0898 1149.97 81.9672 1150.45 81.7218C1150.94 81.4765 1151.41 81.0925 1151.86 80.5698L1153.22 81.6898C1152.61 82.4258 1151.94 82.9698 1151.22 83.3218C1150.49 83.6738 1149.73 83.8498 1148.93 83.8498ZM1165.96 74.0418H1162.68V83.6738H1160.98V74.0418H1157.7V72.4738H1165.96V74.0418ZM1180.36 78.0578C1180.36 78.8578 1180.22 79.6098 1179.93 80.3138C1179.65 81.0072 1179.26 81.6152 1178.76 82.1378C1178.26 82.6605 1177.68 83.0712 1177.02 83.3698C1176.36 83.6685 1175.65 83.8178 1174.89 83.8178C1174.12 83.8178 1173.41 83.6685 1172.75 83.3698C1172.09 83.0605 1171.5 82.6445 1171 82.1218C1170.5 81.5885 1170.11 80.9752 1169.82 80.2818C1169.54 79.5885 1169.4 78.8472 1169.4 78.0578C1169.4 77.2685 1169.55 76.5325 1169.83 75.8498C1170.12 75.1565 1170.52 74.5485 1171.03 74.0258C1171.55 73.4925 1172.13 73.0765 1172.79 72.7778C1173.46 72.4792 1174.15 72.3298 1174.89 72.3298C1175.65 72.3298 1176.36 72.4792 1177.02 72.7778C1177.68 73.0765 1178.26 73.4925 1178.76 74.0258C1179.26 74.5485 1179.65 75.1565 1179.93 75.8498C1180.22 76.5432 1180.36 77.2792 1180.36 78.0578ZM1178.6 78.0578C1178.6 77.3112 1178.43 76.6338 1178.09 76.0258C1177.76 75.4072 1177.31 74.9112 1176.75 74.5378C1176.19 74.1645 1175.57 73.9778 1174.89 73.9778C1174.2 73.9778 1173.57 74.1645 1173 74.5378C1172.45 74.9112 1172 75.4072 1171.66 76.0258C1171.33 76.6445 1171.16 77.3218 1171.16 78.0578C1171.16 78.8045 1171.33 79.4872 1171.66 80.1058C1172 80.7245 1172.45 81.2205 1173.02 81.5938C1173.58 81.9672 1174.21 82.1538 1174.89 82.1538C1175.58 82.1538 1176.21 81.9672 1176.76 81.5938C1177.33 81.2205 1177.78 80.7245 1178.11 80.1058C1178.44 79.4765 1178.6 78.7938 1178.6 78.0578Z" fill="white"/>
<path d="M1220.35 83.6738H1218.11L1213.68 74.6178V83.6578H1211.98V72.4738H1214.37L1218.64 81.3698V72.4738H1220.35V83.6738ZM1235.95 78.0578C1235.95 78.8578 1235.81 79.6098 1235.52 80.3138C1235.24 81.0072 1234.85 81.6152 1234.35 82.1378C1233.85 82.6605 1233.27 83.0712 1232.61 83.3698C1231.95 83.6685 1231.24 83.8178 1230.48 83.8178C1229.71 83.8178 1229 83.6685 1228.34 83.3698C1227.67 83.0605 1227.09 82.6445 1226.59 82.1218C1226.09 81.5885 1225.7 80.9752 1225.41 80.2818C1225.13 79.5885 1224.99 78.8472 1224.99 78.0578C1224.99 77.2685 1225.14 76.5325 1225.42 75.8498C1225.71 75.1565 1226.11 74.5485 1226.62 74.0258C1227.14 73.4925 1227.72 73.0765 1228.38 72.7778C1229.04 72.4792 1229.74 72.3298 1230.48 72.3298C1231.24 72.3298 1231.95 72.4792 1232.61 72.7778C1233.27 73.0765 1233.85 73.4925 1234.35 74.0258C1234.85 74.5485 1235.24 75.1565 1235.52 75.8498C1235.81 76.5432 1235.95 77.2792 1235.95 78.0578ZM1234.19 78.0578C1234.19 77.3112 1234.02 76.6338 1233.68 76.0258C1233.35 75.4072 1232.9 74.9112 1232.34 74.5378C1231.78 74.1645 1231.16 73.9778 1230.48 73.9778C1229.79 73.9778 1229.16 74.1645 1228.59 74.5378C1228.04 74.9112 1227.59 75.4072 1227.25 76.0258C1226.92 76.6445 1226.75 77.3218 1226.75 78.0578C1226.75 78.8045 1226.92 79.4872 1227.25 80.1058C1227.59 80.7245 1228.04 81.2205 1228.61 81.5938C1229.17 81.9672 1229.8 82.1538 1230.48 82.1538C1231.17 82.1538 1231.8 81.9672 1232.35 81.5938C1232.92 81.2205 1233.36 80.7245 1233.7 80.1058C1234.03 79.4765 1234.19 78.7938 1234.19 78.0578ZM1244.27 83.8338C1243.79 83.8338 1243.31 83.7645 1242.83 83.6258C1242.36 83.4765 1241.91 83.2792 1241.5 83.0338C1241.08 82.7885 1240.72 82.5112 1240.43 82.2018L1241.71 80.9858C1242.05 81.3165 1242.45 81.5832 1242.91 81.7858C1243.38 81.9778 1243.82 82.0738 1244.23 82.0738C1244.79 82.0738 1245.26 81.9138 1245.64 81.5938C1246.04 81.2738 1246.23 80.8792 1246.23 80.4098C1246.24 80.0152 1246.11 79.6898 1245.82 79.4338C1245.53 79.1672 1245.14 78.9645 1244.63 78.8258C1243.75 78.5912 1242.99 78.3298 1242.35 78.0418C1241.72 77.7538 1241.24 77.3858 1240.92 76.9378C1240.61 76.4792 1240.5 75.8765 1240.57 75.1298C1240.68 74.2232 1241.06 73.5405 1241.72 73.0818C1242.39 72.6125 1243.22 72.3778 1244.2 72.3778C1244.75 72.3778 1245.32 72.4578 1245.91 72.6178C1246.52 72.7778 1247.11 73.0392 1247.69 73.4018L1246.49 74.6818C1246.16 74.5218 1245.81 74.3832 1245.43 74.2658C1245.06 74.1485 1244.68 74.0898 1244.3 74.0898C1243.97 74.0792 1243.65 74.1165 1243.34 74.2018C1243.04 74.2765 1242.79 74.4098 1242.6 74.6018C1242.41 74.7832 1242.31 75.0285 1242.3 75.3378C1242.29 75.6792 1242.37 75.9458 1242.55 76.1378C1242.74 76.3298 1242.99 76.4898 1243.31 76.6178C1243.64 76.7352 1244.02 76.8578 1244.44 76.9858C1245.19 77.1885 1245.82 77.4178 1246.35 77.6738C1246.87 77.9298 1247.26 78.2712 1247.53 78.6978C1247.81 79.1245 1247.95 79.6952 1247.95 80.4098C1247.95 81.0498 1247.78 81.6312 1247.45 82.1538C1247.12 82.6658 1246.67 83.0765 1246.11 83.3858C1245.55 83.6845 1244.94 83.8338 1244.27 83.8338ZM1263.13 78.0578C1263.13 78.8578 1262.99 79.6098 1262.7 80.3138C1262.42 81.0072 1262.03 81.6152 1261.53 82.1378C1261.03 82.6605 1260.45 83.0712 1259.79 83.3698C1259.13 83.6685 1258.42 83.8178 1257.66 83.8178C1256.89 83.8178 1256.18 83.6685 1255.52 83.3698C1254.86 83.0605 1254.27 82.6445 1253.77 82.1218C1253.27 81.5885 1252.88 80.9752 1252.59 80.2818C1252.31 79.5885 1252.17 78.8472 1252.17 78.0578C1252.17 77.2685 1252.32 76.5325 1252.6 75.8498C1252.89 75.1565 1253.29 74.5485 1253.8 74.0258C1254.32 73.4925 1254.9 73.0765 1255.56 72.7778C1256.23 72.4792 1256.92 72.3298 1257.66 72.3298C1258.42 72.3298 1259.13 72.4792 1259.79 72.7778C1260.45 73.0765 1261.03 73.4925 1261.53 74.0258C1262.03 74.5485 1262.42 75.1565 1262.7 75.8498C1262.99 76.5432 1263.13 77.2792 1263.13 78.0578ZM1261.37 78.0578C1261.37 77.3112 1261.2 76.6338 1260.86 76.0258C1260.53 75.4072 1260.08 74.9112 1259.52 74.5378C1258.96 74.1645 1258.34 73.9778 1257.66 73.9778C1256.97 73.9778 1256.34 74.1645 1255.77 74.5378C1255.22 74.9112 1254.77 75.4072 1254.43 76.0258C1254.1 76.6445 1253.93 77.3218 1253.93 78.0578C1253.93 78.8045 1254.1 79.4872 1254.43 80.1058C1254.77 80.7245 1255.22 81.2205 1255.79 81.5938C1256.35 81.9672 1256.98 82.1538 1257.66 82.1538C1258.35 82.1538 1258.98 81.9672 1259.53 81.5938C1260.1 81.2205 1260.55 80.7245 1260.88 80.1058C1261.21 79.4765 1261.37 78.7938 1261.37 78.0578ZM1275.22 74.0418H1271.94V83.6738H1270.25V74.0418H1266.97V72.4738H1275.22V74.0418ZM1287.51 83.6738H1285.47L1282.8 79.1938H1281.55V83.6738H1279.86L1279.87 72.4738H1284.1C1284.65 72.4738 1285.14 72.6338 1285.57 72.9538C1286.01 73.2632 1286.35 73.6738 1286.59 74.1858C1286.85 74.6978 1286.98 75.2472 1286.98 75.8338C1286.98 76.2925 1286.88 76.7458 1286.69 77.1938C1286.5 77.6312 1286.23 78.0152 1285.89 78.3458C1285.56 78.6765 1285.18 78.9112 1284.75 79.0498L1287.51 83.6738ZM1285.25 75.8338C1285.25 75.5778 1285.2 75.3218 1285.09 75.0658C1284.98 74.8098 1284.83 74.5965 1284.64 74.4258C1284.46 74.2552 1284.25 74.1698 1284 74.1698H1281.55V77.4018H1283.99C1284.23 77.4018 1284.44 77.3218 1284.63 77.1618C1284.82 77.0018 1284.97 76.7992 1285.07 76.5538C1285.19 76.3085 1285.25 76.0685 1285.25 75.8338ZM1302.19 78.0578C1302.19 78.8578 1302.04 79.6098 1301.75 80.3138C1301.48 81.0072 1301.09 81.6152 1300.59 82.1378C1300.08 82.6605 1299.5 83.0712 1298.84 83.3698C1298.18 83.6685 1297.47 83.8178 1296.71 83.8178C1295.95 83.8178 1295.23 83.6685 1294.57 83.3698C1293.91 83.0605 1293.33 82.6445 1292.83 82.1218C1292.32 81.5885 1291.93 80.9752 1291.64 80.2818C1291.36 79.5885 1291.23 78.8472 1291.23 78.0578C1291.23 77.2685 1291.37 76.5325 1291.66 75.8498C1291.95 75.1565 1292.35 74.5485 1292.86 74.0258C1293.37 73.4925 1293.96 73.0765 1294.62 72.7778C1295.28 72.4792 1295.98 72.3298 1296.71 72.3298C1297.47 72.3298 1298.18 72.4792 1298.84 72.7778C1299.5 73.0765 1300.08 73.4925 1300.59 74.0258C1301.09 74.5485 1301.48 75.1565 1301.75 75.8498C1302.04 76.5432 1302.19 77.2792 1302.19 78.0578ZM1300.43 78.0578C1300.43 77.3112 1300.26 76.6338 1299.91 76.0258C1299.58 75.4072 1299.14 74.9112 1298.57 74.5378C1298.02 74.1645 1297.4 73.9778 1296.71 73.9778C1296.02 73.9778 1295.39 74.1645 1294.83 74.5378C1294.27 74.9112 1293.82 75.4072 1293.48 76.0258C1293.15 76.6445 1292.99 77.3218 1292.99 78.0578C1292.99 78.8045 1293.15 79.4872 1293.48 80.1058C1293.82 80.7245 1294.28 81.2205 1294.84 81.5938C1295.41 81.9672 1296.03 82.1538 1296.71 82.1538C1297.41 82.1538 1298.03 81.9672 1298.59 81.5938C1299.15 81.2205 1299.6 80.7245 1299.93 80.1058C1300.26 79.4765 1300.43 78.7938 1300.43 78.0578ZM1310.5 83.8338C1310.02 83.8338 1309.54 83.7645 1309.06 83.6258C1308.59 83.4765 1308.15 83.2792 1307.73 83.0338C1307.32 82.7885 1306.96 82.5112 1306.66 82.2018L1307.94 80.9858C1308.28 81.3165 1308.68 81.5832 1309.14 81.7858C1309.61 81.9778 1310.05 82.0738 1310.47 82.0738C1311.02 82.0738 1311.49 81.9138 1311.88 81.5938C1312.27 81.2738 1312.47 80.8792 1312.47 80.4098C1312.48 80.0152 1312.34 79.6898 1312.05 79.4338C1311.76 79.1672 1311.37 78.9645 1310.87 78.8258C1309.98 78.5912 1309.22 78.3298 1308.58 78.0418C1307.95 77.7538 1307.48 77.3858 1307.16 76.9378C1306.85 76.4792 1306.73 75.8765 1306.8 75.1298C1306.91 74.2232 1307.29 73.5405 1307.96 73.0818C1308.63 72.6125 1309.45 72.3778 1310.44 72.3778C1310.98 72.3778 1311.55 72.4578 1312.15 72.6178C1312.76 72.7778 1313.35 73.0392 1313.92 73.4018L1312.72 74.6818C1312.39 74.5218 1312.04 74.3832 1311.67 74.2658C1311.29 74.1485 1310.92 74.0898 1310.53 74.0898C1310.2 74.0792 1309.88 74.1165 1309.57 74.2018C1309.27 74.2765 1309.03 74.4098 1308.84 74.6018C1308.64 74.7832 1308.54 75.0285 1308.53 75.3378C1308.52 75.6792 1308.61 75.9458 1308.79 76.1378C1308.97 76.3298 1309.22 76.4898 1309.54 76.6178C1309.87 76.7352 1310.25 76.8578 1310.68 76.9858C1311.42 77.1885 1312.06 77.4178 1312.58 77.6738C1313.1 77.9298 1313.5 78.2712 1313.76 78.6978C1314.04 79.1245 1314.18 79.6952 1314.18 80.4098C1314.18 81.0498 1314.01 81.6312 1313.68 82.1538C1313.35 82.6658 1312.91 83.0765 1312.34 83.3858C1311.79 83.6845 1311.17 83.8338 1310.5 83.8338Z" fill="white"/>
<defs>
<filter id="filter0_d_450_1015" x="-17" y="0" width="1428" height="250" filterUnits="userSpaceOnUse" color-interpolation-filters="sRGB">
<feFlood flood-opacity="0" result="BackgroundImageFix"/>
<feColorMatrix in="SourceAlpha" type="matrix" values="0 0 0 0 0 0 0 0 0 0 0 0 0 0 0 0 0 0 127 0" result="hardAlpha"/>
<feOffset dy="-1"/>
<feGaussianBlur stdDeviation="2"/>
<feComposite in2="hardAlpha" operator="out"/>
<feColorMatrix type="matrix" values="0 0 0 0 0 0 0 0 0 0 0 0 0 0 0 0 0 0 0.25 0"/>
<feBlend mode="normal" in2="BackgroundImageFix" result="effect1_dropShadow_450_1015"/>
<feBlend mode="normal" in="SourceGraphic" in2="effect1_dropShadow_450_1015" result="shape"/>
</filter>
</defs>
</svg>
