<svg width="1420" height="86" viewBox="0 0 1420 86" fill="none" xmlns="http://www.w3.org/2000/svg">
<g filter="url(#filter0_d_402_884)">
<mask id="path-1-inside-1_402_884" fill="white">
<path d="M0 0H1420V80H0V0Z"/>
</mask>
<path d="M0 0H1420V80H0V0Z" fill="white"/>
<path d="M1420 79H0V81H1420V79Z" fill="black" fill-opacity="0.35" mask="url(#path-1-inside-1_402_884)"/>
<path d="M119.09 16.7795C115.13 20.1957 114.561 20.6968 113.173 21.8355C107.187 26.8231 105.822 28.2124 106.96 28.2124C107.347 28.2124 108.143 27.6203 114.197 22.8604C116.017 21.4028 118.885 19.1709 120.546 17.8727C122.185 16.5973 123.55 15.413 123.55 15.2536C123.55 14.9803 122.617 13.9555 122.389 14.001C122.344 14.001 120.842 15.2536 119.09 16.7795ZM122.367 15.4358C122.139 15.5952 122.003 15.8002 122.071 15.8685C122.139 15.9596 122.116 15.9824 122.048 15.9369C121.912 15.8458 121.365 16.2329 120.546 17.0073C120.296 17.235 120.023 17.3944 119.909 17.3489C119.818 17.3033 120.023 17.0073 120.387 16.6884C120.751 16.3468 121.047 16.1191 121.047 16.1646C121.047 16.2102 121.297 15.9824 121.616 15.6863C121.912 15.3675 122.298 15.117 122.458 15.117C122.663 15.1398 122.617 15.2309 122.367 15.4358Z" fill="#F2565B"/>
<path d="M122.026 20.9891C120.251 23.1982 118.544 25.3163 118.225 25.7034C114.766 29.9167 112.149 33.4013 112.263 33.6973C112.445 34.1756 112.946 34.0845 113.446 33.4924C114.698 32.0348 119.568 26.3639 119.682 26.2728C119.75 26.2045 120.82 24.9746 122.071 23.5398C123.323 22.105 124.666 20.5563 125.075 20.1236C125.462 19.6909 126.008 19.0532 126.259 18.7344L126.714 18.1422L126.213 17.6867C125.94 17.4362 125.599 17.1629 125.462 17.0946C125.348 17.0263 123.778 18.7799 122.026 20.9891ZM125.121 18.7571C124.962 18.871 124.825 19.076 124.779 19.2582C124.757 19.4176 124.211 20.1236 123.573 20.8069C122.936 21.4901 122.413 22.1278 122.413 22.2417C122.413 22.3328 122.299 22.3555 122.162 22.2872C122.026 22.1961 122.094 21.9456 122.39 21.6495C123.983 19.9414 124.461 19.3721 124.461 19.1899C124.461 18.871 125.257 18.1422 125.348 18.37C125.394 18.4838 125.303 18.666 125.121 18.7571Z" fill="#F2565B"/>
<path d="M108.984 28.0735C108.984 28.1874 109.143 28.3923 109.348 28.5745C109.53 28.734 109.849 29.1211 110.008 29.44C110.668 30.647 110.736 30.7154 111.123 30.3965C111.624 29.9638 111.578 29.6905 111.01 29.7588C110.736 29.7816 110.463 29.6677 110.418 29.5083C110.35 29.3261 110.441 29.2806 110.736 29.3944C110.987 29.4855 110.85 29.235 110.35 28.7112C109.599 27.9141 108.984 27.6408 108.984 28.0735Z" fill="#F2565B"/>
<path d="M108.211 28.4828C108.12 28.5739 108.348 28.9156 108.735 29.2344C109.121 29.5532 109.781 30.3959 110.214 31.1247L110.988 32.4229L111.557 31.4663C111.875 30.9197 112.08 30.4187 112.012 30.3276C111.807 29.9632 111.534 30.1682 111.283 30.8742L111.01 31.6257L110.464 30.9425C110.168 30.5553 109.918 30.1909 109.895 30.0771C109.895 29.986 109.668 29.5532 109.395 29.1205C108.871 28.3462 108.53 28.164 108.211 28.4828Z" fill="#F2565B"/>
<path d="M107.277 29.257C107.186 29.3937 107.164 29.5076 107.186 29.5531C108.597 30.4185 109.326 31.079 109.917 31.99C110.304 32.6049 110.714 33.106 110.828 33.106C111.01 33.106 110.509 32.2861 109.485 30.8513C108.256 29.1204 107.642 28.6649 107.277 29.257Z" fill="#F2565B"/>
<path d="M106.185 30.3735C105.775 30.7835 105.775 30.7835 106.458 30.9429C106.822 31.0112 107.573 31.3984 108.119 31.7855C108.984 32.4232 109.348 32.7876 109.917 33.6303C110.008 33.7442 110.19 33.7897 110.327 33.6986C110.691 33.4709 109.189 31.5122 107.983 30.6468C106.822 29.8041 106.731 29.8041 106.185 30.3735Z" fill="#F2565B"/>
<path d="M111.737 31.7409C111.464 32.2875 111.396 32.5835 111.555 32.5152C111.988 32.3558 112.67 31.1032 112.42 30.9665C112.306 30.8982 112.01 31.2398 111.737 31.7409Z" fill="#F2565B"/>
<path d="M105.799 31.4437C105.799 31.6487 107.415 33.1063 107.642 33.1063C107.756 33.1063 108.188 33.4251 108.644 33.8123C109.281 34.3817 109.531 34.4728 109.736 34.2678C109.941 34.0401 109.827 33.8351 109.212 33.2885C107.597 31.8992 105.799 30.9199 105.799 31.4437Z" fill="#F2565B"/>
<path d="M93.0313 38.9594C92.8265 40.8041 93.6458 44.1975 94.9202 46.6344C96.0581 48.7753 98.8573 51.7587 100.632 52.6925L101.702 53.2619V54.56C101.702 56.6325 101.429 56.5642 108.78 56.5642C112.739 56.5642 115.334 56.4731 115.607 56.3364C115.948 56.1315 116.039 55.8354 116.039 54.765V53.4213L117.359 52.6925C118.065 52.2826 119.476 51.121 120.477 50.0962C123.185 47.3632 124.619 44.2659 125.028 40.212L125.165 38.8H109.098C100.268 38.8 93.0541 38.8683 93.0313 38.9594ZM124.232 40.3942C124.232 41.6696 123.367 44.4481 122.389 46.3384C121.319 48.4109 118.952 50.9388 117.109 51.9865L115.88 52.6925H108.939H102.021L100.883 51.9865C98.9255 50.7567 96.4449 48.0009 95.3753 45.8373C94.5106 44.1064 93.7368 41.3507 93.7368 40.0981V39.5971H108.984H124.232V40.3942ZM115.539 54.56L115.47 55.7671L108.939 55.8354L102.385 55.881V54.6283V53.3757H109.007H115.607L115.539 54.56Z" fill="#F2565B"/>
<path d="M139.346 43.8765V32.6765H141.826L145.122 40.9165L148.434 32.6765H150.914V43.8765H149.858V33.8125H149.122L145.762 42.0845H144.514L141.138 33.8125H140.402V43.8765H139.346ZM166.518 38.2925C166.518 39.1031 166.374 39.8605 166.086 40.5645C165.809 41.2578 165.419 41.8658 164.918 42.3885C164.417 42.9111 163.835 43.3165 163.174 43.6045C162.513 43.8925 161.803 44.0365 161.046 44.0365C160.278 44.0365 159.563 43.8925 158.902 43.6045C158.241 43.3058 157.659 42.8951 157.158 42.3725C156.657 41.8391 156.262 41.2258 155.974 40.5325C155.697 39.8391 155.558 39.0925 155.558 38.2925C155.558 37.4925 155.702 36.7458 155.99 36.0525C156.278 35.3485 156.678 34.7351 157.19 34.2125C157.702 33.6791 158.289 33.2631 158.95 32.9645C159.611 32.6658 160.31 32.5165 161.046 32.5165C161.803 32.5165 162.513 32.6711 163.174 32.9805C163.846 33.2791 164.427 33.6951 164.918 34.2285C165.419 34.7618 165.809 35.3751 166.086 36.0685C166.374 36.7618 166.518 37.5031 166.518 38.2925ZM165.446 38.2925C165.446 37.6418 165.334 37.0285 165.11 36.4525C164.886 35.8658 164.571 35.3538 164.166 34.9165C163.761 34.4685 163.291 34.1165 162.758 33.8605C162.235 33.6045 161.665 33.4765 161.046 33.4765C160.427 33.4765 159.851 33.6045 159.318 33.8605C158.785 34.1058 158.315 34.4525 157.91 34.9005C157.515 35.3485 157.201 35.8658 156.966 36.4525C156.742 37.0285 156.63 37.6418 156.63 38.2925C156.63 38.9431 156.742 39.5565 156.966 40.1325C157.19 40.7085 157.505 41.2205 157.91 41.6685C158.315 42.1058 158.785 42.4525 159.318 42.7085C159.851 42.9645 160.427 43.0925 161.046 43.0925C161.665 43.0925 162.241 42.9698 162.774 42.7245C163.307 42.4685 163.771 42.1218 164.166 41.6845C164.571 41.2365 164.886 40.7245 165.11 40.1485C165.334 39.5725 165.446 38.9538 165.446 38.2925ZM176.384 43.8765H171.184V32.6765H172.24V42.8845H176.384V43.8765ZM191.73 38.2925C191.73 39.1031 191.586 39.8605 191.298 40.5645C191.021 41.2578 190.632 41.8658 190.13 42.3885C189.629 42.9111 189.048 43.3165 188.386 43.6045C187.725 43.8925 187.016 44.0365 186.258 44.0365C185.49 44.0365 184.776 43.8925 184.114 43.6045C183.453 43.3058 182.872 42.8951 182.37 42.3725C181.869 41.8391 181.474 41.2258 181.186 40.5325C180.909 39.8391 180.77 39.0925 180.77 38.2925C180.77 37.4925 180.914 36.7458 181.202 36.0525C181.49 35.3485 181.89 34.7351 182.402 34.2125C182.914 33.6791 183.501 33.2631 184.162 32.9645C184.824 32.6658 185.522 32.5165 186.258 32.5165C187.016 32.5165 187.725 32.6711 188.386 32.9805C189.058 33.2791 189.64 33.6951 190.13 34.2285C190.632 34.7618 191.021 35.3751 191.298 36.0685C191.586 36.7618 191.73 37.5031 191.73 38.2925ZM190.658 38.2925C190.658 37.6418 190.546 37.0285 190.322 36.4525C190.098 35.8658 189.784 35.3538 189.378 34.9165C188.973 34.4685 188.504 34.1165 187.97 33.8605C187.448 33.6045 186.877 33.4765 186.258 33.4765C185.64 33.4765 185.064 33.6045 184.53 33.8605C183.997 34.1058 183.528 34.4525 183.122 34.9005C182.728 35.3485 182.413 35.8658 182.178 36.4525C181.954 37.0285 181.842 37.6418 181.842 38.2925C181.842 38.9431 181.954 39.5565 182.178 40.1325C182.402 40.7085 182.717 41.2205 183.122 41.6685C183.528 42.1058 183.997 42.4525 184.53 42.7085C185.064 42.9645 185.64 43.0925 186.258 43.0925C186.877 43.0925 187.453 42.9698 187.986 42.7245C188.52 42.4685 188.984 42.1218 189.378 41.6845C189.784 41.2365 190.098 40.7245 190.322 40.1485C190.546 39.5725 190.658 38.9538 190.658 38.2925ZM203.533 43.8765H202.301L198.077 39.0445L197.405 39.6045V43.8765H196.365V32.6605H197.405V38.1645L202.205 32.6445H203.533L198.813 38.1805L203.533 43.8765ZM208.014 43.8765L211.854 32.6765H213.214L217.054 43.8765H215.934L214.958 40.9965H210.11L209.134 43.8765H208.014ZM212.526 33.9245L210.414 40.1165H214.654L212.526 33.9245ZM221.207 33.4925C221.207 33.2685 221.281 33.0765 221.431 32.9165C221.591 32.7565 221.793 32.6765 222.039 32.6765C222.252 32.6765 222.433 32.7671 222.583 32.9485C222.743 33.1191 222.817 33.3165 222.807 33.5405C222.796 33.6578 222.753 33.8391 222.679 34.0845C222.604 34.3298 222.508 34.5965 222.391 34.8845C222.284 35.1618 222.183 35.4231 222.087 35.6685C221.991 35.9031 221.916 36.0685 221.863 36.1645L221.463 35.9885C221.505 35.9138 221.564 35.7805 221.639 35.5885C221.713 35.3858 221.783 35.1671 221.847 34.9325C221.921 34.6978 221.975 34.4791 222.007 34.2765C221.772 34.2765 221.58 34.2018 221.431 34.0525C221.281 33.8925 221.207 33.7058 221.207 33.4925ZM228.349 43.8765H227.293V32.6765H228.349V43.8765Z" fill="#F2565B"/>
<path d="M278.905 44V32.8H282.009L284.649 39.872L287.289 32.8H290.393V44H288.473V35.152L285.561 42.4H283.753L280.825 35.152V44H278.905ZM298.83 44H292.798V32.8H298.83V34.592H294.718V37.712H298.046V39.328H294.718V42.208H298.83V44ZM309.419 44H306.955L302.987 35.296V43.984H301.067V32.8H303.707L307.499 41.328V32.8H309.419V44ZM318.172 44V43.088C317.863 43.3867 317.516 43.6267 317.132 43.808C316.748 43.9893 316.327 44.08 315.868 44.08C315.058 44.08 314.332 43.8987 313.692 43.536C313.063 43.1627 312.567 42.6613 312.204 42.032C311.842 41.4027 311.66 40.7093 311.66 39.952V32.8H313.564L313.58 39.952C313.58 40.3573 313.682 40.7253 313.884 41.056C314.087 41.376 314.359 41.6267 314.7 41.808C315.052 41.9893 315.442 42.08 315.868 42.08C316.316 42.08 316.711 41.9893 317.052 41.808C317.404 41.616 317.676 41.36 317.868 41.04C318.071 40.72 318.172 40.3573 318.172 39.952V32.8H320.092V39.648C320.092 39.7547 320.082 39.8507 320.06 39.936H320.092V44H318.172ZM315.292 31.616H316.236L316.86 29.456H315.66L315.292 31.616Z" fill="#F2565B"/>
<path d="M350.196 44H347.732L343.764 35.296V43.984H341.844V32.8H344.484L348.276 41.328V32.8H350.196V44ZM363.397 38.368C363.397 39.168 363.253 39.92 362.965 40.624C362.688 41.3173 362.298 41.9253 361.797 42.448C361.296 42.9707 360.714 43.3813 360.053 43.68C359.392 43.9787 358.682 44.128 357.925 44.128C357.157 44.128 356.442 43.9787 355.781 43.68C355.12 43.3707 354.538 42.9547 354.037 42.432C353.536 41.8987 353.141 41.2853 352.853 40.592C352.576 39.888 352.437 39.1467 352.437 38.368C352.437 37.5893 352.581 36.8587 352.869 36.176C353.157 35.4827 353.557 34.8747 354.069 34.352C354.581 33.8187 355.168 33.4027 355.829 33.104C356.49 32.8053 357.189 32.656 357.925 32.656C358.682 32.656 359.386 32.8053 360.037 33.104C360.698 33.4027 361.28 33.8187 361.781 34.352C362.293 34.8747 362.688 35.4827 362.965 36.176C363.253 36.8587 363.397 37.5893 363.397 38.368ZM361.413 38.368C361.413 37.664 361.253 37.024 360.933 36.448C360.624 35.872 360.202 35.4133 359.669 35.072C359.146 34.72 358.565 34.544 357.925 34.544C357.285 34.544 356.698 34.72 356.165 35.072C355.632 35.424 355.205 35.8933 354.885 36.48C354.576 37.056 354.421 37.6853 354.421 38.368C354.421 39.072 354.576 39.7173 354.885 40.304C355.205 40.8907 355.632 41.36 356.165 41.712C356.698 42.064 357.285 42.24 357.925 42.24C358.576 42.24 359.162 42.064 359.685 41.712C360.208 41.36 360.624 40.8907 360.933 40.304C361.253 39.7067 361.413 39.0613 361.413 38.368ZM369.359 44.16C368.879 44.16 368.394 44.0853 367.903 43.936C367.423 43.7867 366.97 43.584 366.543 43.328C366.127 43.0613 365.77 42.768 365.471 42.448L366.895 41.072C367.215 41.4027 367.599 41.6693 368.047 41.872C368.506 42.0747 368.933 42.176 369.327 42.176C369.829 42.176 370.25 42.032 370.591 41.744C370.943 41.4453 371.119 41.0933 371.119 40.688C371.119 40.3573 370.997 40.0747 370.751 39.84C370.506 39.5947 370.202 39.4187 369.839 39.312C368.89 39.056 368.079 38.784 367.407 38.496C366.746 38.208 366.255 37.8293 365.935 37.36C365.615 36.8907 365.498 36.2613 365.583 35.472C365.658 34.8533 365.861 34.3413 366.191 33.936C366.533 33.52 366.959 33.2107 367.471 33.008C367.994 32.8053 368.57 32.704 369.199 32.704C369.765 32.704 370.357 32.7947 370.975 32.976C371.594 33.1467 372.207 33.4347 372.815 33.84L371.455 35.248C371.146 35.0773 370.81 34.9333 370.447 34.816C370.085 34.6987 369.711 34.6347 369.327 34.624C369.029 34.6133 368.741 34.6453 368.463 34.72C368.197 34.784 367.973 34.9013 367.791 35.072C367.61 35.232 367.514 35.4507 367.503 35.728C367.493 36.0373 367.573 36.2773 367.743 36.448C367.914 36.6187 368.149 36.7573 368.447 36.864C368.757 36.9707 369.114 37.088 369.519 37.216C370.266 37.4187 370.901 37.6533 371.423 37.92C371.946 38.176 372.346 38.5227 372.623 38.96C372.901 39.3867 373.039 39.9627 373.039 40.688C373.039 41.3387 372.874 41.9253 372.543 42.448C372.213 42.9707 371.77 43.3867 371.215 43.696C370.661 44.0053 370.042 44.16 369.359 44.16ZM385.763 38.368C385.763 39.168 385.619 39.92 385.331 40.624C385.053 41.3173 384.664 41.9253 384.163 42.448C383.661 42.9707 383.08 43.3813 382.419 43.68C381.757 43.9787 381.048 44.128 380.291 44.128C379.523 44.128 378.808 43.9787 378.147 43.68C377.485 43.3707 376.904 42.9547 376.403 42.432C375.901 41.8987 375.507 41.2853 375.219 40.592C374.941 39.888 374.803 39.1467 374.803 38.368C374.803 37.5893 374.947 36.8587 375.235 36.176C375.523 35.4827 375.923 34.8747 376.435 34.352C376.947 33.8187 377.533 33.4027 378.195 33.104C378.856 32.8053 379.555 32.656 380.291 32.656C381.048 32.656 381.752 32.8053 382.403 33.104C383.064 33.4027 383.645 33.8187 384.147 34.352C384.659 34.8747 385.053 35.4827 385.331 36.176C385.619 36.8587 385.763 37.5893 385.763 38.368ZM383.779 38.368C383.779 37.664 383.619 37.024 383.299 36.448C382.989 35.872 382.568 35.4133 382.035 35.072C381.512 34.72 380.931 34.544 380.291 34.544C379.651 34.544 379.064 34.72 378.531 35.072C377.997 35.424 377.571 35.8933 377.251 36.48C376.941 37.056 376.787 37.6853 376.787 38.368C376.787 39.072 376.941 39.7173 377.251 40.304C377.571 40.8907 377.997 41.36 378.531 41.712C379.064 42.064 379.651 42.24 380.291 42.24C380.941 42.24 381.528 42.064 382.051 41.712C382.573 41.36 382.989 40.8907 383.299 40.304C383.619 39.7067 383.779 39.0613 383.779 38.368ZM395.452 34.56H392.284V44H390.364V34.56H387.196V32.8H395.452V34.56ZM405.432 44H403.144L400.584 39.632H399.608V44H397.688L397.704 32.8H401.912C402.477 32.8 402.978 32.96 403.416 33.28C403.853 33.6 404.194 34.0213 404.44 34.544C404.696 35.056 404.824 35.6107 404.824 36.208C404.824 36.656 404.733 37.0987 404.552 37.536C404.381 37.9627 404.141 38.3467 403.832 38.688C403.522 39.0293 403.165 39.2853 402.76 39.456L405.432 44ZM402.872 36.208C402.872 35.9947 402.824 35.776 402.728 35.552C402.632 35.3173 402.504 35.12 402.344 34.96C402.184 34.8 401.997 34.72 401.784 34.72H399.608V37.6H401.784C401.997 37.6 402.184 37.5307 402.344 37.392C402.504 37.2533 402.632 37.0773 402.728 36.864C402.824 36.64 402.872 36.4213 402.872 36.208ZM417.678 38.368C417.678 39.168 417.534 39.92 417.246 40.624C416.969 41.3173 416.579 41.9253 416.078 42.448C415.577 42.9707 414.995 43.3813 414.334 43.68C413.673 43.9787 412.963 44.128 412.206 44.128C411.438 44.128 410.723 43.9787 410.062 43.68C409.401 43.3707 408.819 42.9547 408.318 42.432C407.817 41.8987 407.422 41.2853 407.134 40.592C406.857 39.888 406.718 39.1467 406.718 38.368C406.718 37.5893 406.862 36.8587 407.15 36.176C407.438 35.4827 407.838 34.8747 408.35 34.352C408.862 33.8187 409.449 33.4027 410.11 33.104C410.771 32.8053 411.47 32.656 412.206 32.656C412.963 32.656 413.667 32.8053 414.318 33.104C414.979 33.4027 415.561 33.8187 416.062 34.352C416.574 34.8747 416.969 35.4827 417.246 36.176C417.534 36.8587 417.678 37.5893 417.678 38.368ZM415.694 38.368C415.694 37.664 415.534 37.024 415.214 36.448C414.905 35.872 414.483 35.4133 413.95 35.072C413.427 34.72 412.846 34.544 412.206 34.544C411.566 34.544 410.979 34.72 410.446 35.072C409.913 35.424 409.486 35.8933 409.166 36.48C408.857 37.056 408.702 37.6853 408.702 38.368C408.702 39.072 408.857 39.7173 409.166 40.304C409.486 40.8907 409.913 41.36 410.446 41.712C410.979 42.064 411.566 42.24 412.206 42.24C412.857 42.24 413.443 42.064 413.966 41.712C414.489 41.36 414.905 40.8907 415.214 40.304C415.534 39.7067 415.694 39.0613 415.694 38.368ZM423.641 44.16C423.161 44.16 422.675 44.0853 422.185 43.936C421.705 43.7867 421.251 43.584 420.825 43.328C420.409 43.0613 420.051 42.768 419.753 42.448L421.177 41.072C421.497 41.4027 421.881 41.6693 422.329 41.872C422.787 42.0747 423.214 42.176 423.609 42.176C424.11 42.176 424.531 42.032 424.873 41.744C425.225 41.4453 425.401 41.0933 425.401 40.688C425.401 40.3573 425.278 40.0747 425.033 39.84C424.787 39.5947 424.483 39.4187 424.121 39.312C423.171 39.056 422.361 38.784 421.689 38.496C421.027 38.208 420.537 37.8293 420.217 37.36C419.897 36.8907 419.779 36.2613 419.865 35.472C419.939 34.8533 420.142 34.3413 420.473 33.936C420.814 33.52 421.241 33.2107 421.753 33.008C422.275 32.8053 422.851 32.704 423.481 32.704C424.046 32.704 424.638 32.7947 425.257 32.976C425.875 33.1467 426.489 33.4347 427.097 33.84L425.737 35.248C425.427 35.0773 425.091 34.9333 424.729 34.816C424.366 34.6987 423.993 34.6347 423.609 34.624C423.31 34.6133 423.022 34.6453 422.745 34.72C422.478 34.784 422.254 34.9013 422.073 35.072C421.891 35.232 421.795 35.4507 421.785 35.728C421.774 36.0373 421.854 36.2773 422.025 36.448C422.195 36.6187 422.43 36.7573 422.729 36.864C423.038 36.9707 423.395 37.088 423.801 37.216C424.547 37.4187 425.182 37.6533 425.705 37.92C426.227 38.176 426.627 38.5227 426.905 38.96C427.182 39.3867 427.321 39.9627 427.321 40.688C427.321 41.3387 427.155 41.9253 426.825 42.448C426.494 42.9707 426.051 43.3867 425.497 43.696C424.942 44.0053 424.323 44.16 423.641 44.16Z" fill="#F2565B"/>
<path d="M454.382 44.176C453.614 44.176 452.905 44.0267 452.254 43.728C451.604 43.4187 451.028 43.0133 450.526 42.512C450.025 42 449.63 41.4027 449.342 40.72C449.054 40.0267 448.91 39.2587 448.91 38.416C448.91 37.5947 449.054 36.8373 449.342 36.144C449.641 35.44 450.036 34.8267 450.526 34.304C451.017 33.792 451.588 33.3867 452.238 33.088C452.9 32.7893 453.614 32.64 454.382 32.64C455.193 32.64 455.966 32.8267 456.702 33.2C457.438 33.5627 458.121 34.128 458.75 34.896L457.198 36.176C456.761 35.632 456.308 35.2427 455.838 35.008C455.369 34.7627 454.884 34.64 454.382 34.64C453.902 34.64 453.454 34.736 453.038 34.928C452.633 35.12 452.265 35.3867 451.934 35.728C451.614 36.0587 451.364 36.4533 451.182 36.912C451.001 37.36 450.91 37.8613 450.91 38.416C450.91 38.9707 451.001 39.472 451.182 39.92C451.364 40.3573 451.614 40.7467 451.934 41.088C452.254 41.4293 452.622 41.696 453.038 41.888C453.454 42.08 453.902 42.176 454.382 42.176C454.884 42.176 455.369 42.0587 455.838 41.824C456.308 41.5787 456.761 41.184 457.198 40.64L458.75 41.92C458.121 42.688 457.438 43.2587 456.702 43.632C455.966 43.9947 455.193 44.176 454.382 44.176ZM471.795 38.368C471.795 39.168 471.651 39.92 471.363 40.624C471.086 41.3173 470.697 41.9253 470.195 42.448C469.694 42.9707 469.113 43.3813 468.451 43.68C467.79 43.9787 467.081 44.128 466.323 44.128C465.555 44.128 464.841 43.9787 464.179 43.68C463.518 43.3707 462.937 42.9547 462.435 42.432C461.934 41.8987 461.539 41.2853 461.251 40.592C460.974 39.888 460.835 39.1467 460.835 38.368C460.835 37.5893 460.979 36.8587 461.267 36.176C461.555 35.4827 461.955 34.8747 462.467 34.352C462.979 33.8187 463.566 33.4027 464.227 33.104C464.889 32.8053 465.587 32.656 466.323 32.656C467.081 32.656 467.785 32.8053 468.435 33.104C469.097 33.4027 469.678 33.8187 470.179 34.352C470.691 34.8747 471.086 35.4827 471.363 36.176C471.651 36.8587 471.795 37.5893 471.795 38.368ZM469.811 38.368C469.811 37.664 469.651 37.024 469.331 36.448C469.022 35.872 468.601 35.4133 468.067 35.072C467.545 34.72 466.963 34.544 466.323 34.544C465.683 34.544 465.097 34.72 464.563 35.072C464.03 35.424 463.603 35.8933 463.283 36.48C462.974 37.056 462.819 37.6853 462.819 38.368C462.819 39.072 462.974 39.7173 463.283 40.304C463.603 40.8907 464.03 41.36 464.563 41.712C465.097 42.064 465.683 42.24 466.323 42.24C466.974 42.24 467.561 42.064 468.083 41.712C468.606 41.36 469.022 40.8907 469.331 40.304C469.651 39.7067 469.811 39.0613 469.811 38.368ZM482.382 44H479.918L475.95 35.296V43.984H474.03V32.8H476.67L480.462 41.328V32.8H482.382V44ZM492.879 34.56H489.711V44H487.791V34.56H484.623V32.8H492.879V34.56ZM493.36 43.984L496.816 32.8H499.232L502.704 43.984H500.656L499.856 41.28H496.208L495.408 43.984H493.36ZM498.032 35.2L496.72 39.616H499.344L498.032 35.2ZM509.304 44.176C508.536 44.176 507.827 44.0267 507.176 43.728C506.526 43.4187 505.95 43.0133 505.448 42.512C504.947 42 504.552 41.4027 504.264 40.72C503.976 40.0267 503.832 39.2587 503.832 38.416C503.832 37.5947 503.976 36.8373 504.264 36.144C504.563 35.44 504.958 34.8267 505.448 34.304C505.939 33.792 506.51 33.3867 507.16 33.088C507.822 32.7893 508.536 32.64 509.304 32.64C510.115 32.64 510.888 32.8267 511.624 33.2C512.36 33.5627 513.043 34.128 513.672 34.896L512.12 36.176C511.683 35.632 511.23 35.2427 510.76 35.008C510.291 34.7627 509.806 34.64 509.304 34.64C508.824 34.64 508.376 34.736 507.96 34.928C507.555 35.12 507.187 35.3867 506.856 35.728C506.536 36.0587 506.286 36.4533 506.104 36.912C505.923 37.36 505.832 37.8613 505.832 38.416C505.832 38.9707 505.923 39.472 506.104 39.92C506.286 40.3573 506.536 40.7467 506.856 41.088C507.176 41.4293 507.544 41.696 507.96 41.888C508.376 42.08 508.824 42.176 509.304 42.176C509.806 42.176 510.291 42.0587 510.76 41.824C511.23 41.5787 511.683 41.184 512.12 40.64L513.672 41.92C513.043 42.688 512.36 43.2587 511.624 43.632C510.888 43.9947 510.115 44.176 509.304 44.176ZM524.013 34.56H520.845V44H518.925V34.56H515.757V32.8H524.013V34.56ZM536.095 38.368C536.095 39.168 535.951 39.92 535.663 40.624C535.386 41.3173 534.997 41.9253 534.495 42.448C533.994 42.9707 533.413 43.3813 532.751 43.68C532.09 43.9787 531.381 44.128 530.623 44.128C529.855 44.128 529.141 43.9787 528.479 43.68C527.818 43.3707 527.237 42.9547 526.735 42.432C526.234 41.8987 525.839 41.2853 525.551 40.592C525.274 39.888 525.135 39.1467 525.135 38.368C525.135 37.5893 525.279 36.8587 525.567 36.176C525.855 35.4827 526.255 34.8747 526.767 34.352C527.279 33.8187 527.866 33.4027 528.527 33.104C529.189 32.8053 529.887 32.656 530.623 32.656C531.381 32.656 532.085 32.8053 532.735 33.104C533.397 33.4027 533.978 33.8187 534.479 34.352C534.991 34.8747 535.386 35.4827 535.663 36.176C535.951 36.8587 536.095 37.5893 536.095 38.368ZM534.111 38.368C534.111 37.664 533.951 37.024 533.631 36.448C533.322 35.872 532.901 35.4133 532.367 35.072C531.845 34.72 531.263 34.544 530.623 34.544C529.983 34.544 529.397 34.72 528.863 35.072C528.33 35.424 527.903 35.8933 527.583 36.48C527.274 37.056 527.119 37.6853 527.119 38.368C527.119 39.072 527.274 39.7173 527.583 40.304C527.903 40.8907 528.33 41.36 528.863 41.712C529.397 42.064 529.983 42.24 530.623 42.24C531.274 42.24 531.861 42.064 532.383 41.712C532.906 41.36 533.322 40.8907 533.631 40.304C533.951 39.7067 534.111 39.0613 534.111 38.368Z" fill="#F2565B"/>
<path d="M1142 38C1142 25.8497 1151.85 16 1164 16H1305C1317.15 16 1327 25.8497 1327 38C1327 50.1503 1317.15 60 1305 60H1164C1151.85 60 1142 50.1503 1142 38Z" fill="#F2565B"/>
<path d="M1179.93 44H1177.64L1175.08 39.632H1174.1V44H1172.18L1172.2 32.8H1176.41C1176.97 32.8 1177.47 32.96 1177.91 33.28C1178.35 33.6 1178.69 34.0213 1178.93 34.544C1179.19 35.056 1179.32 35.6107 1179.32 36.208C1179.32 36.656 1179.23 37.0987 1179.05 37.536C1178.88 37.9627 1178.64 38.3467 1178.33 38.688C1178.02 39.0293 1177.66 39.2853 1177.25 39.456L1179.93 44ZM1177.37 36.208C1177.37 35.9947 1177.32 35.776 1177.22 35.552C1177.13 35.3173 1177 35.12 1176.84 34.96C1176.68 34.8 1176.49 34.72 1176.28 34.72H1174.1V37.6H1176.28C1176.49 37.6 1176.68 37.5307 1176.84 37.392C1177 37.2533 1177.13 37.0773 1177.22 36.864C1177.32 36.64 1177.37 36.4213 1177.37 36.208ZM1190.6 44H1184.57V32.8H1190.6V34.592H1186.49V37.712H1189.82V39.328H1186.49V42.208H1190.6V44ZM1200.39 44.144C1199.64 44.144 1198.93 44 1198.27 43.712C1197.61 43.4133 1197.02 43.0027 1196.52 42.48C1196.02 41.9573 1195.63 41.3547 1195.34 40.672C1195.06 39.9787 1194.92 39.2427 1194.92 38.464C1194.92 37.6853 1195.06 36.9493 1195.34 36.256C1195.62 35.5627 1196.01 34.9493 1196.51 34.416C1197.01 33.872 1197.59 33.4453 1198.25 33.136C1198.91 32.8267 1199.63 32.672 1200.39 32.672C1201.33 32.672 1202.21 32.9013 1203.02 33.36C1203.83 33.8187 1204.53 34.512 1205.13 35.44L1203.43 36.544C1203.03 35.904 1202.57 35.44 1202.04 35.152C1201.52 34.8533 1200.97 34.704 1200.39 34.704C1199.74 34.704 1199.16 34.8747 1198.63 35.216C1198.12 35.5573 1197.71 36.016 1197.4 36.592C1197.1 37.1573 1196.95 37.7813 1196.95 38.464C1196.95 38.9333 1197.05 39.3867 1197.23 39.824C1197.41 40.2613 1197.65 40.656 1197.96 41.008C1198.28 41.3493 1198.65 41.6213 1199.07 41.824C1199.48 42.0267 1199.93 42.128 1200.39 42.128C1201.08 42.128 1201.62 42.0373 1202.03 41.856C1202.44 41.6747 1202.79 41.3653 1203.08 40.928V40.192H1201.27V38.304H1205.11V41.44C1204.66 42.3893 1204.04 43.0773 1203.26 43.504C1202.48 43.9307 1201.53 44.144 1200.39 44.144ZM1211.69 44H1209.77V32.8H1211.69V44ZM1220.21 44.16C1219.73 44.16 1219.25 44.0853 1218.75 43.936C1218.27 43.7867 1217.82 43.584 1217.39 43.328C1216.98 43.0613 1216.62 42.768 1216.32 42.448L1217.75 41.072C1218.07 41.4027 1218.45 41.6693 1218.9 41.872C1219.36 42.0747 1219.78 42.176 1220.18 42.176C1220.68 42.176 1221.1 42.032 1221.44 41.744C1221.79 41.4453 1221.97 41.0933 1221.97 40.688C1221.97 40.3573 1221.85 40.0747 1221.6 39.84C1221.36 39.5947 1221.05 39.4187 1220.69 39.312C1219.74 39.056 1218.93 38.784 1218.26 38.496C1217.6 38.208 1217.11 37.8293 1216.79 37.36C1216.47 36.8907 1216.35 36.2613 1216.43 35.472C1216.51 34.8533 1216.71 34.3413 1217.04 33.936C1217.38 33.52 1217.81 33.2107 1218.32 33.008C1218.85 32.8053 1219.42 32.704 1220.05 32.704C1220.62 32.704 1221.21 32.7947 1221.83 32.976C1222.45 33.1467 1223.06 33.4347 1223.67 33.84L1222.31 35.248C1222 35.0773 1221.66 34.9333 1221.3 34.816C1220.94 34.6987 1220.56 34.6347 1220.18 34.624C1219.88 34.6133 1219.59 34.6453 1219.31 34.72C1219.05 34.784 1218.82 34.9013 1218.64 35.072C1218.46 35.232 1218.37 35.4507 1218.35 35.728C1218.34 36.0373 1218.42 36.2773 1218.59 36.448C1218.77 36.6187 1219 36.7573 1219.3 36.864C1219.61 36.9707 1219.97 37.088 1220.37 37.216C1221.12 37.4187 1221.75 37.6533 1222.27 37.92C1222.8 38.176 1223.2 38.5227 1223.47 38.96C1223.75 39.3867 1223.89 39.9627 1223.89 40.688C1223.89 41.3387 1223.73 41.9253 1223.39 42.448C1223.06 42.9707 1222.62 43.3867 1222.07 43.696C1221.51 44.0053 1220.89 44.16 1220.21 44.16ZM1236.62 34.56H1233.45V44H1231.53V34.56H1228.37V32.8H1236.62V34.56ZM1249 44H1246.71L1244.15 39.632H1243.18V44H1241.26L1241.27 32.8H1245.48C1246.05 32.8 1246.55 32.96 1246.99 33.28C1247.42 33.6 1247.76 34.0213 1248.01 34.544C1248.27 35.056 1248.39 35.6107 1248.39 36.208C1248.39 36.656 1248.3 37.0987 1248.12 37.536C1247.95 37.9627 1247.71 38.3467 1247.4 38.688C1247.09 39.0293 1246.74 39.2853 1246.33 39.456L1249 44ZM1246.44 36.208C1246.44 35.9947 1246.39 35.776 1246.3 35.552C1246.2 35.3173 1246.07 35.12 1245.91 34.96C1245.75 34.8 1245.57 34.72 1245.35 34.72H1243.18V37.6H1245.35C1245.57 37.6 1245.75 37.5307 1245.91 37.392C1246.07 37.2533 1246.2 37.0773 1246.3 36.864C1246.39 36.64 1246.44 36.4213 1246.44 36.208ZM1253.17 43.984L1256.63 32.8H1259.04L1262.52 43.984H1260.47L1259.67 41.28H1256.02L1255.22 43.984H1253.17ZM1257.84 35.2L1256.53 39.616H1259.16L1257.84 35.2ZM1274.9 44H1272.61L1270.05 39.632H1269.08V44H1267.16L1267.17 32.8H1271.38C1271.95 32.8 1272.45 32.96 1272.89 33.28C1273.32 33.6 1273.66 34.0213 1273.91 34.544C1274.17 35.056 1274.29 35.6107 1274.29 36.208C1274.29 36.656 1274.2 37.0987 1274.02 37.536C1273.85 37.9627 1273.61 38.3467 1273.3 38.688C1272.99 39.0293 1272.64 39.2853 1272.23 39.456L1274.9 44ZM1272.34 36.208C1272.34 35.9947 1272.29 35.776 1272.2 35.552C1272.1 35.3173 1271.97 35.12 1271.81 34.96C1271.65 34.8 1271.47 34.72 1271.25 34.72H1269.08V37.6H1271.25C1271.47 37.6 1271.65 37.5307 1271.81 37.392C1271.97 37.2533 1272.1 37.0773 1272.2 36.864C1272.29 36.64 1272.34 36.4213 1272.34 36.208ZM1282.63 44.16C1282.15 44.16 1281.67 44.0853 1281.18 43.936C1280.7 43.7867 1280.24 43.584 1279.82 43.328C1279.4 43.0613 1279.04 42.768 1278.74 42.448L1280.17 41.072C1280.49 41.4027 1280.87 41.6693 1281.32 41.872C1281.78 42.0747 1282.21 42.176 1282.6 42.176C1283.1 42.176 1283.52 42.032 1283.86 41.744C1284.22 41.4453 1284.39 41.0933 1284.39 40.688C1284.39 40.3573 1284.27 40.0747 1284.02 39.84C1283.78 39.5947 1283.48 39.4187 1283.11 39.312C1282.16 39.056 1281.35 38.784 1280.68 38.496C1280.02 38.208 1279.53 37.8293 1279.21 37.36C1278.89 36.8907 1278.77 36.2613 1278.86 35.472C1278.93 34.8533 1279.13 34.3413 1279.46 33.936C1279.81 33.52 1280.23 33.2107 1280.74 33.008C1281.27 32.8053 1281.84 32.704 1282.47 32.704C1283.04 32.704 1283.63 32.7947 1284.25 32.976C1284.87 33.1467 1285.48 33.4347 1286.09 33.84L1284.73 35.248C1284.42 35.0773 1284.08 34.9333 1283.72 34.816C1283.36 34.6987 1282.98 34.6347 1282.6 34.624C1282.3 34.6133 1282.01 34.6453 1281.74 34.72C1281.47 34.784 1281.25 34.9013 1281.06 35.072C1280.88 35.232 1280.79 35.4507 1280.78 35.728C1280.77 36.0373 1280.85 36.2773 1281.02 36.448C1281.19 36.6187 1281.42 36.7573 1281.72 36.864C1282.03 36.9707 1282.39 37.088 1282.79 37.216C1283.54 37.4187 1284.17 37.6533 1284.7 37.92C1285.22 38.176 1285.62 38.5227 1285.9 38.96C1286.17 39.3867 1286.31 39.9627 1286.31 40.688C1286.31 41.3387 1286.15 41.9253 1285.82 42.448C1285.49 42.9707 1285.04 43.3867 1284.49 43.696C1283.93 44.0053 1283.32 44.16 1282.63 44.16ZM1296.98 44H1290.95V32.8H1296.98V34.592H1292.87V37.712H1296.2V39.328H1292.87V42.208H1296.98V44Z" fill="white"/>
<path d="M936 38C936 26.402 945.402 17 957 17H1098C1109.6 17 1119 26.402 1119 38C1119 49.598 1109.6 59 1098 59H957C945.402 59 936 49.598 936 38Z" fill="white" stroke="#F2565B" stroke-width="2"/>
<path d="M954.732 44H952.812V32.8H954.732V44ZM967.88 44H965.416L961.448 35.296V43.984H959.528V32.8H962.168L965.96 41.328V32.8H967.88V44ZM974.601 44H972.681V32.8H974.601V44ZM984.709 44.176C983.941 44.176 983.232 44.0267 982.581 43.728C981.93 43.4187 981.354 43.0133 980.853 42.512C980.352 42 979.957 41.4027 979.669 40.72C979.381 40.0267 979.237 39.2587 979.237 38.416C979.237 37.5947 979.381 36.8373 979.669 36.144C979.968 35.44 980.362 34.8267 980.853 34.304C981.344 33.792 981.914 33.3867 982.565 33.088C983.226 32.7893 983.941 32.64 984.709 32.64C985.52 32.64 986.293 32.8267 987.029 33.2C987.765 33.5627 988.448 34.128 989.077 34.896L987.525 36.176C987.088 35.632 986.634 35.2427 986.165 35.008C985.696 34.7627 985.21 34.64 984.709 34.64C984.229 34.64 983.781 34.736 983.365 34.928C982.96 35.12 982.592 35.3867 982.261 35.728C981.941 36.0587 981.69 36.4533 981.509 36.912C981.328 37.36 981.237 37.8613 981.237 38.416C981.237 38.9707 981.328 39.472 981.509 39.92C981.69 40.3573 981.941 40.7467 982.261 41.088C982.581 41.4293 982.949 41.696 983.365 41.888C983.781 42.08 984.229 42.176 984.709 42.176C985.21 42.176 985.696 42.0587 986.165 41.824C986.634 41.5787 987.088 41.184 987.525 40.64L989.077 41.92C988.448 42.688 987.765 43.2587 987.029 43.632C986.293 43.9947 985.52 44.176 984.709 44.176ZM995.642 44H993.722V32.8H995.642V44ZM1000.28 43.984L1003.73 32.8H1006.15L1009.62 43.984H1007.57L1006.77 41.28H1003.13L1002.33 43.984H1000.28ZM1004.95 35.2L1003.64 39.616H1006.26L1004.95 35.2ZM1022.01 44H1019.72L1017.16 39.632H1016.18V44H1014.26L1014.28 32.8H1018.49C1019.05 32.8 1019.55 32.96 1019.99 33.28C1020.43 33.6 1020.77 34.0213 1021.01 34.544C1021.27 35.056 1021.4 35.6107 1021.4 36.208C1021.4 36.656 1021.31 37.0987 1021.13 37.536C1020.96 37.9627 1020.72 38.3467 1020.41 38.688C1020.1 39.0293 1019.74 39.2853 1019.33 39.456L1022.01 44ZM1019.45 36.208C1019.45 35.9947 1019.4 35.776 1019.3 35.552C1019.21 35.3173 1019.08 35.12 1018.92 34.96C1018.76 34.8 1018.57 34.72 1018.36 34.72H1016.18V37.6H1018.36C1018.57 37.6 1018.76 37.5307 1018.92 37.392C1019.08 37.2533 1019.21 37.0773 1019.3 36.864C1019.4 36.64 1019.45 36.4213 1019.45 36.208ZM1039.66 44.16C1039.18 44.16 1038.69 44.0853 1038.2 43.936C1037.72 43.7867 1037.27 43.584 1036.84 43.328C1036.42 43.0613 1036.07 42.768 1035.77 42.448L1037.19 41.072C1037.51 41.4027 1037.9 41.6693 1038.34 41.872C1038.8 42.0747 1039.23 42.176 1039.62 42.176C1040.13 42.176 1040.55 42.032 1040.89 41.744C1041.24 41.4453 1041.42 41.0933 1041.42 40.688C1041.42 40.3573 1041.29 40.0747 1041.05 39.84C1040.8 39.5947 1040.5 39.4187 1040.14 39.312C1039.19 39.056 1038.38 38.784 1037.7 38.496C1037.04 38.208 1036.55 37.8293 1036.23 37.36C1035.91 36.8907 1035.79 36.2613 1035.88 35.472C1035.95 34.8533 1036.16 34.3413 1036.49 33.936C1036.83 33.52 1037.26 33.2107 1037.77 33.008C1038.29 32.8053 1038.87 32.704 1039.5 32.704C1040.06 32.704 1040.65 32.7947 1041.27 32.976C1041.89 33.1467 1042.5 33.4347 1043.11 33.84L1041.75 35.248C1041.44 35.0773 1041.11 34.9333 1040.74 34.816C1040.38 34.6987 1040.01 34.6347 1039.62 34.624C1039.33 34.6133 1039.04 34.6453 1038.76 34.72C1038.49 34.784 1038.27 34.9013 1038.09 35.072C1037.91 35.232 1037.81 35.4507 1037.8 35.728C1037.79 36.0373 1037.87 36.2773 1038.04 36.448C1038.21 36.6187 1038.45 36.7573 1038.74 36.864C1039.05 36.9707 1039.41 37.088 1039.82 37.216C1040.56 37.4187 1041.2 37.6533 1041.72 37.92C1042.24 38.176 1042.64 38.5227 1042.92 38.96C1043.2 39.3867 1043.34 39.9627 1043.34 40.688C1043.34 41.3387 1043.17 41.9253 1042.84 42.448C1042.51 42.9707 1042.07 43.3867 1041.51 43.696C1040.96 44.0053 1040.34 44.16 1039.66 44.16ZM1054 44H1047.97V32.8H1054V34.592H1049.89V37.712H1053.22V39.328H1049.89V42.208H1054V44ZM1062.37 44.16C1061.89 44.16 1061.4 44.0853 1060.91 43.936C1060.43 43.7867 1059.98 43.584 1059.55 43.328C1059.14 43.0613 1058.78 42.768 1058.48 42.448L1059.9 41.072C1060.22 41.4027 1060.61 41.6693 1061.06 41.872C1061.52 42.0747 1061.94 42.176 1062.34 42.176C1062.84 42.176 1063.26 42.032 1063.6 41.744C1063.95 41.4453 1064.13 41.0933 1064.13 40.688C1064.13 40.3573 1064.01 40.0747 1063.76 39.84C1063.52 39.5947 1063.21 39.4187 1062.85 39.312C1061.9 39.056 1061.09 38.784 1060.42 38.496C1059.76 38.208 1059.26 37.8293 1058.94 37.36C1058.62 36.8907 1058.51 36.2613 1058.59 35.472C1058.67 34.8533 1058.87 34.3413 1059.2 33.936C1059.54 33.52 1059.97 33.2107 1060.48 33.008C1061 32.8053 1061.58 32.704 1062.21 32.704C1062.77 32.704 1063.37 32.7947 1063.98 32.976C1064.6 33.1467 1065.22 33.4347 1065.82 33.84L1064.46 35.248C1064.16 35.0773 1063.82 34.9333 1063.46 34.816C1063.09 34.6987 1062.72 34.6347 1062.34 34.624C1062.04 34.6133 1061.75 34.6453 1061.47 34.72C1061.21 34.784 1060.98 34.9013 1060.8 35.072C1060.62 35.232 1060.52 35.4507 1060.51 35.728C1060.5 36.0373 1060.58 36.2773 1060.75 36.448C1060.92 36.6187 1061.16 36.7573 1061.46 36.864C1061.77 36.9707 1062.12 37.088 1062.53 37.216C1063.28 37.4187 1063.91 37.6533 1064.43 37.92C1064.96 38.176 1065.36 38.5227 1065.63 38.96C1065.91 39.3867 1066.05 39.9627 1066.05 40.688C1066.05 41.3387 1065.88 41.9253 1065.55 42.448C1065.22 42.9707 1064.78 43.3867 1064.22 43.696C1063.67 44.0053 1063.05 44.16 1062.37 44.16ZM1072.6 44H1070.68V32.8H1072.6V44ZM1088.2 38.368C1088.2 39.168 1088.06 39.92 1087.77 40.624C1087.49 41.3173 1087.1 41.9253 1086.6 42.448C1086.1 42.9707 1085.52 43.3813 1084.86 43.68C1084.19 43.9787 1083.49 44.128 1082.73 44.128C1081.96 44.128 1081.25 43.9787 1080.58 43.68C1079.92 43.3707 1079.34 42.9547 1078.84 42.432C1078.34 41.8987 1077.94 41.2853 1077.66 40.592C1077.38 39.888 1077.24 39.1467 1077.24 38.368C1077.24 37.5893 1077.38 36.8587 1077.67 36.176C1077.96 35.4827 1078.36 34.8747 1078.87 34.352C1079.38 33.8187 1079.97 33.4027 1080.63 33.104C1081.29 32.8053 1081.99 32.656 1082.73 32.656C1083.49 32.656 1084.19 32.8053 1084.84 33.104C1085.5 33.4027 1086.08 33.8187 1086.58 34.352C1087.1 34.8747 1087.49 35.4827 1087.77 36.176C1088.06 36.8587 1088.2 37.5893 1088.2 38.368ZM1086.22 38.368C1086.22 37.664 1086.06 37.024 1085.74 36.448C1085.43 35.872 1085.01 35.4133 1084.47 35.072C1083.95 34.72 1083.37 34.544 1082.73 34.544C1082.09 34.544 1081.5 34.72 1080.97 35.072C1080.43 35.424 1080.01 35.8933 1079.69 36.48C1079.38 37.056 1079.22 37.6853 1079.22 38.368C1079.22 39.072 1079.38 39.7173 1079.69 40.304C1080.01 40.8907 1080.43 41.36 1080.97 41.712C1081.5 42.064 1082.09 42.24 1082.73 42.24C1083.38 42.24 1083.97 42.064 1084.49 41.712C1085.01 41.36 1085.43 40.8907 1085.74 40.304C1086.06 39.7067 1086.22 39.0613 1086.22 38.368ZM1082.14 31.616H1083.08L1083.7 29.456H1082.5L1082.14 31.616ZM1101.19 44H1098.72L1094.75 35.296V43.984H1092.83V32.8H1095.47L1099.27 41.328V32.8H1101.19V44Z" fill="#F2565B"/>
</g>
<defs>
<filter id="filter0_d_402_884" x="-4" y="-2" width="1428" height="88" filterUnits="userSpaceOnUse" color-interpolation-filters="sRGB">
<feFlood flood-opacity="0" result="BackgroundImageFix"/>
<feColorMatrix in="SourceAlpha" type="matrix" values="0 0 0 0 0 0 0 0 0 0 0 0 0 0 0 0 0 0 127 0" result="hardAlpha"/>
<feOffset dy="2"/>
<feGaussianBlur stdDeviation="2"/>
<feComposite in2="hardAlpha" operator="out"/>
<feColorMatrix type="matrix" values="0 0 0 0 0 0 0 0 0 0 0 0 0 0 0 0 0 0 0.2 0"/>
<feBlend mode="normal" in2="BackgroundImageFix" result="effect1_dropShadow_402_884"/>
<feBlend mode="normal" in="SourceGraphic" in2="effect1_dropShadow_402_884" result="shape"/>
</filter>
</defs>
</svg>
